<?xml version="1.0" encoding="utf-8" standalone="yes"?>
<!DOCTYPE svg PUBLIC "-//W3C//DTD SVG 1.1//EN" "http://www.w3.org/Graphics/SVG/1.1/DTD/svg11.dtd">
<svg width="680" height="302" viewBox="0 0 680 302" style="fill:none;stroke:none;fill-rule:evenodd;clip-rule:evenodd;stroke-linecap:round;stroke-linejoin:round;stroke-miterlimit:1.5;" version="1.1" xmlns="http://www.w3.org/2000/svg" xmlns:xlink="http://www.w3.org/1999/xlink"><style id="fontImports">@import url("https://fonts.googleapis.com/css2?family=Roboto:wght@400;700&amp;display=block");</style><rect id="" x="0" y="0" width="680" height="302" style="fill: none;"></rect><g id="items" style="isolation: isolate"><g id="blend" style="mix-blend-mode: normal"><g id="g-root-tf_1hbyu3s1d7nm-fill" data-item-order="-203400" transform="translate(-9, -9)"></g><g id="g-root--1.line_sy_hvwfzc1aepw-fill" data-item-order="-3737" transform="translate(576, 122.99609375)"></g><g id="g-root--1.vector_sy_hvwfzc1aepx-fill" data-item-order="-3733" transform="translate(21, 122.99609375)"></g><g id="g-root-6.cu-smallCircle_sy_909fqg1afim-fill" data-item-order="-3729" transform="translate(570, 120)"></g><g id="g-root-5.cu-smallCircle_sy_909fqg1afin-fill" data-item-order="-3725" transform="translate(474, 120)"></g><g id="g-root-4.cu-smallCircle_sy_4l2ep41ad54-fill" data-item-order="-3721" transform="translate(378, 120)"></g><g id="g-root-3.cu-smallCircle_sy_4l2ep41ad55-fill" data-item-order="-3717" transform="translate(282, 120)"></g><g id="g-root-2.cu-smallCircle_sy_4l2ep41ad56-fill" data-item-order="-3713" transform="translate(186, 120)"></g><g id="g-root-1.cu-smallCircle_sy_58wko1adxf-fill" data-item-order="-3709" transform="translate(90, 120)"></g><g id="g-root-tx_parseinc_1hfpf541acxt-fill" data-item-order="0" transform="translate(15, 3)"><g id="tx_parseinc_1hfpf541acxt-fill" stroke="none" fill="#484848"><g><text style="font: 20px Roboto, sans-serif; white-space: pre;" font-size="20px" font-family="Roboto, sans-serif"><tspan x="17.25" y="33.5" dominant-baseline="ideographic">Parse Incoming </tspan><tspan x="46.88" y="57.5" dominant-baseline="ideographic">Log Data</tspan></text></g></g></g><g id="g-root-tx_batchlog_1luwg6g1afbb-fill" data-item-order="0" transform="translate(231, 3)"><g id="tx_batchlog_1luwg6g1afbb-fill" stroke="none" fill="#484848"><g><text style="font: 20px Roboto, sans-serif; white-space: pre;" font-size="20px" font-family="Roboto, sans-serif"><tspan x="16.68" y="33.5" dominant-baseline="ideographic">Batch Log </tspan><tspan x="36.99" y="57.5" dominant-baseline="ideographic">Rows</tspan></text></g></g></g><g id="g-root-tx_updatein_1qapyaw1aej1-fill" data-item-order="0" transform="translate(435, 3)"><g id="tx_updatein_1qapyaw1aej1-fill" stroke="none" fill="#484848"><g><text style="font: 20px Roboto, sans-serif; white-space: pre;" font-size="20px" font-family="Roboto, sans-serif"><tspan x="20.26" y="33.5" dominant-baseline="ideographic">Update </tspan><tspan x="15.09" y="57.5" dominant-baseline="ideographic">IndexDB</tspan></text></g></g></g><g id="g-root-3_hu1joo15eexa-fill" data-item-order="0" transform="translate(69, 63)"></g><g id="g-root-log_hu171k1isjp-fill" data-item-order="0" transform="translate(261, 63)"></g><g id="g-root-down_1448zxk1emf6-fill" data-item-order="0" transform="translate(453, 63)"></g><g id="g-root-id_mcz2lk1r8cn-fill" data-item-order="0" transform="translate(165, 135)"></g><g id="g-root-1_mg3cvc1k7in-fill" data-item-order="0" transform="translate(357, 135)"></g><g id="g-root-2_v2zmqw1sow7-fill" data-item-order="0" transform="translate(549, 135)"></g><g id="g-root-tx_retrieve_1hfpf541acxs-fill" data-item-order="0" transform="translate(135, 195)"><g id="tx_retrieve_1hfpf541acxs-fill" stroke="none" fill="#484848"><g><text style="font: 20px Roboto, sans-serif; white-space: pre;" font-size="20px" font-family="Roboto, sans-serif"><tspan x="14.11" y="33.5" dominant-baseline="ideographic">Retrieve or </tspan><tspan x="32.43" y="57.5" dominant-baseline="ideographic">Create </tspan><tspan x="20.25" y="81.5" dominant-baseline="ideographic">StreamID</tspan></text></g></g></g><g id="g-root-tx_createan_1luwg6g1afba-fill" data-item-order="0" transform="translate(327, 195)"><g id="tx_createan_1luwg6g1afba-fill" stroke="none" fill="#484848"><g><text style="font: 20px Roboto, sans-serif; white-space: pre;" font-size="20px" font-family="Roboto, sans-serif"><tspan x="14.4" y="33.5" dominant-baseline="ideographic">Create and </tspan><tspan x="12.3" y="57.5" dominant-baseline="ideographic">Write Block</tspan></text></g></g></g><g id="g-root-tx_mergeand_58wko1adxg-fill" data-item-order="0" transform="translate(513, 195)"><g id="tx_mergeand_58wko1adxg-fill" stroke="none" fill="#484848"><g><text style="font: 20px Roboto, sans-serif; white-space: pre;" font-size="20px" font-family="Roboto, sans-serif"><tspan x="22.7" y="33.5" dominant-baseline="ideographic">Merge and </tspan><tspan x="19.65" y="57.5" dominant-baseline="ideographic">Flush Parts</tspan><tspan x="12.36" y="81.5" dominant-baseline="ideographic">(periodically)</tspan></text></g></g></g><g id="g-root-tf_1hbyu3s1d7nm-stroke" data-item-order="-203400" transform="translate(-9, -9)"></g><g id="g-root--1.line_sy_hvwfzc1aepw-stroke" data-item-order="-3737" transform="translate(576, 122.99609375)"><g id="-1.line_sy_hvwfzc1aepw-stroke" fill="none" stroke-linecap="round" stroke-linejoin="round" stroke-miterlimit="4" stroke="#484848" stroke-width="2"><g><path d="M 77 10.003906L 10 10.003906"></path><path d="M 71 16.503906L 77.5 10.003906L 71 3.503906" stroke-dasharray="none"></path></g></g></g><g id="g-root--1.vector_sy_hvwfzc1aepx-stroke" data-item-order="-3733" transform="translate(21, 122.99609375)"><g id="-1.vector_sy_hvwfzc1aepx-stroke" fill="none" stroke-linecap="round" stroke-linejoin="round" stroke-miterlimit="4" stroke="#484848" stroke-width="2"><g><path d="M 559 10L 469 10M 463 10L 373 10M 367 10L 277 10M 271 10L 181 10M 174.9976 10L 84.9976 10M 78.9976 10L 10 10"></path></g></g></g><g id="g-root-6.cu-smallCircle_sy_909fqg1afim-stroke" data-item-order="-3729" transform="translate(570, 120)"><g id="6.cu-smallCircle_sy_909fqg1afim-stroke" fill="none" stroke-linecap="round" stroke-linejoin="round" stroke-miterlimit="4" stroke="#484848" stroke-width="2"><g><path d="M 16 13C 16 14.6569 14.6569 16 13 16C 11.3431 16 10 14.6569 10 13C 10 11.3431 11.3431 10 13 10C 14.6569 10 16 11.3431 16 13Z"></path></g></g></g><g id="g-root-5.cu-smallCircle_sy_909fqg1afin-stroke" data-item-order="-3725" transform="translate(474, 120)"><g id="5.cu-smallCircle_sy_909fqg1afin-stroke" fill="none" stroke-linecap="round" stroke-linejoin="round" stroke-miterlimit="4" stroke="#484848" stroke-width="2"><g><path d="M 16 13C 16 14.6569 14.6569 16 13 16C 11.3431 16 10 14.6569 10 13C 10 11.3431 11.3431 10 13 10C 14.6569 10 16 11.3431 16 13Z"></path></g></g></g><g id="g-root-4.cu-smallCircle_sy_4l2ep41ad54-stroke" data-item-order="-3721" transform="translate(378, 120)"><g id="4.cu-smallCircle_sy_4l2ep41ad54-stroke" fill="none" stroke-linecap="round" stroke-linejoin="round" stroke-miterlimit="4" stroke="#484848" stroke-width="2"><g><path d="M 16 13C 16 14.6569 14.6569 16 13 16C 11.3431 16 10 14.6569 10 13C 10 11.3431 11.3431 10 13 10C 14.6569 10 16 11.3431 16 13Z"></path></g></g></g><g id="g-root-3.cu-smallCircle_sy_4l2ep41ad55-stroke" data-item-order="-3717" transform="translate(282, 120)"><g id="3.cu-smallCircle_sy_4l2ep41ad55-stroke" fill="none" stroke-linecap="round" stroke-linejoin="round" stroke-miterlimit="4" stroke="#484848" stroke-width="2"><g><path d="M 16 13C 16 14.6569 14.6569 16 13 16C 11.3431 16 10 14.6569 10 13C 10 11.3431 11.3431 10 13 10C 14.6569 10 16 11.3431 16 13Z"></path></g></g></g><g id="g-root-2.cu-smallCircle_sy_4l2ep41ad56-stroke" data-item-order="-3713" transform="translate(186, 120)"><g id="2.cu-smallCircle_sy_4l2ep41ad56-stroke" fill="none" stroke-linecap="round" stroke-linejoin="round" stroke-miterlimit="4" stroke="#484848" stroke-width="2"><g><path d="M 16 13C 16 14.6569 14.6569 16 13 16C 11.3431 16 10 14.6569 10 13C 10 11.3431 11.3431 10 13 10C 14.6569 10 16 11.3431 16 13Z"></path></g></g></g><g id="g-root-1.cu-smallCircle_sy_58wko1adxf-stroke" data-item-order="-3709" transform="translate(90, 120)"><g id="1.cu-smallCircle_sy_58wko1adxf-stroke" fill="none" stroke-linecap="round" stroke-linejoin="round" stroke-miterlimit="4" stroke="#484848" stroke-width="2"><g><path d="M 16 13C 16 14.6569 14.6569 16 13 16C 11.3431 16 10 14.6569 10 13C 10 11.3431 11.3431 10 13 10C 14.6569 10 16 11.3431 16 13Z"></path></g></g></g><g id="g-root-tx_parseinc_1hfpf541acxt-stroke" data-item-order="0" transform="translate(15, 3)"></g><g id="g-root-tx_batchlog_1luwg6g1afbb-stroke" data-item-order="0" transform="translate(231, 3)"></g><g id="g-root-tx_updatein_1qapyaw1aej1-stroke" data-item-order="0" transform="translate(435, 3)"></g><g id="g-root-3_hu1joo15eexa-stroke" data-item-order="0" transform="translate(69, 63)"><g id="3_hu1joo15eexa-stroke" fill="none" stroke-linecap="round" stroke-linejoin="round" stroke-miterlimit="4" stroke="#507fcc" stroke-width="2"><g><path d="M 50.748001 23.667999L 47.681999 16.014L 27.664 16.014M 31.458 24.014L 27.278 15.256001C 26.942078 14.500559 26.19276 14.013816 25.365999 14.014L 13.088 14.014C 11.934505 14.015104 10.999999 14.950505 11 16.104L 11 51.903999C 11 53.058273 11.935724 53.993999 13.09 53.993999L 54.905998 53.993999C 55.462383 53.995068 55.996227 53.774242 56.389275 53.380444C 56.782322 52.986645 57.002129 52.452377 56.999996 51.895996L 57 26.104C 57 24.948942 56.063053 24.012894 54.907997 24.014ZM 10.998 46.014L 56.998001 46.014"></path></g></g></g><g id="g-root-log_hu171k1isjp-stroke" data-item-order="0" transform="translate(261, 63)"><g id="log_hu171k1isjp-stroke" fill="none" stroke-linecap="round" stroke-linejoin="round" stroke-miterlimit="4" stroke="#92bd39" stroke-width="2"><g><path d="M 19 27C 19 30.865993 22.134007 34 26 34C 29.865993 34 33 30.865993 33 27C 33 23.134007 29.865993 20 26 20C 22.134007 20 19 23.134007 19 27ZM 23 27C 23 28.656855 24.343147 30 26 30C 27.656855 30 29 28.656855 29 27C 29 25.343147 27.656855 24 26 24C 24.343147 24 23 25.343147 23 27ZM 29 41C 29 42.656857 30.343147 44 32 44C 33.656853 44 35 42.656857 35 41C 35 39.343147 33.656853 38 32 38C 30.343147 38 29 39.343147 29 41ZM 15 41C 15 42.656857 16.343145 44 18 44C 19.656855 44 21 42.656857 21 41C 21 39.343147 19.656855 38 18 38C 16.343145 38 15 39.343147 15 41ZM 26 20L 44 20C 47.865993 20 51 23.134007 51 27C 51 30.865993 47.865993 34 44 34M 25 41C 25 44.865993 28.134008 48 32 48C 35.865993 48 39 44.865993 39 41C 39 37.13401 35.865993 34 32 34C 28.134008 34 25 37.13401 25 41ZM 32 34L 50 34C 53.865993 34 57 37.13401 57 41C 57 44.865993 53.865993 48 50 48L 32 48M 11 41C 11 44.865993 14.134007 48 18 48C 21.865993 48 25 44.865993 25 41C 25 37.13401 21.865993 34 18 34C 14.134007 34 11 37.13401 11 41ZM 32.003998 48L 18 48M 18 34L 32.003998 34M 37 24L 43 24M 43 28L 45 28M 43 38L 45 38M 49 38L 51 38M 47 42L 53 42M 42 44L 44 44M 37 30L 39 30"></path></g></g></g><g id="g-root-down_1448zxk1emf6-stroke" data-item-order="0" transform="translate(453, 63)"><g id="down_1448zxk1emf6-stroke" fill="none" stroke-linecap="round" stroke-linejoin="round" stroke-miterlimit="4" stroke="#7f64ea" stroke-width="2"><g><path d="M 49 19.049999C 49 23.462 40.492001 27.049999 30 27.049999C 19.507999 27.049999 11 23.462 11 19.049999C 11 14.638 19.507999 11 30 11C 40.492001 11 49 14.63 49 19.049999ZM 30 35.049999C 19.507999 35.049999 11 31.462 11 27.049999M 27 43.950001C 17.934 43.349998 11 40.034 11 36.052002M 28 52.984001C 18.448 52.562 11 49.183998 11 45.049999L 11 19M 49 19.001999L 49 28.002001M 33 45.001999C 33 51.629417 38.372581 57.002003 45 57.002003C 51.627419 57.002003 57 51.629417 57 45.002003C 57 38.374584 51.627419 33.001999 45 33.001999C 38.372581 33.001999 33 38.374584 33 45.002003ZM 45 39.001999L 45 51.001999M 45 51.001999L 40.5 46.501999M 45 51.001999L 49.5 46.501999"></path></g></g></g><g id="g-root-id_mcz2lk1r8cn-stroke" data-item-order="0" transform="translate(165, 135)"><g id="id_mcz2lk1r8cn-stroke" fill="none" stroke-linecap="round" stroke-linejoin="round" stroke-miterlimit="4" stroke="#3cc583" stroke-width="2"><g><path d="M 52.515999 29.464001C 48.346722 27.089949 43.756687 25.546806 39 24.919998L 39 13L 31.024 18L 31.024 24.737999C 10 26.23 -1.2 48.577999 32 55L 39 50.422001L 39 29.618C 42.118828 30.179199 45.15377 31.134171 48.032001 32.459999L 44.043999 35L 57 35L 57 26.472ZM 31.024 29.264L 31.024 49C 9.986 46.108002 14.82 30.5 31.024 29.271999Z"></path></g></g></g><g id="g-root-1_mg3cvc1k7in-stroke" data-item-order="0" transform="translate(357, 135)"><g id="1_mg3cvc1k7in-stroke" fill="none" stroke-linecap="round" stroke-linejoin="round" stroke-miterlimit="4" stroke="#1eabda" stroke-width="2"><g><path d="M 11.044 19.001999C 11.044001 23.420277 19.550591 27.002001 30.044001 27.002001C 40.537411 27.002001 49.043999 23.420277 49.043999 19.001999C 49.043999 14.583722 40.537411 11.002 30.044001 11.002C 19.550591 11.002 11.044001 14.583722 11.044001 19.001999ZM 30.044001 35C 19.552 35 11.044 31.42 11.044 27M 27.044001 43.900002C 17.978001 43.299999 11.044 39.989998 11.044 36.001999M 28.044001 52.959999C 18.492001 52.537998 11.044 49.136002 11.044 45.001999L 11.044 19M 49.043999 19.001999L 49.043999 28.002001M 33.040001 46.501999C 33.040001 48.987282 35.054718 51.001999 37.540001 51.001999C 40.025284 51.001999 42.040001 48.987282 42.040001 46.501999C 42.040001 44.01672 40.025284 42.001999 37.540001 42.001999C 35.054718 42.001999 33.040001 44.01672 33.040001 46.501999ZM 48.040001 52.501999C 48.040001 54.987282 50.054718 57.001999 52.540001 57.001999C 55.02528 57.001999 57.040001 54.987282 57.040001 52.501999C 57.040001 50.01672 55.02528 48.001999 52.540001 48.001999C 50.054718 48.001999 48.040001 50.01672 48.040001 52.501999ZM 48.040001 37.501999C 48.040001 39.987282 50.054718 42.001999 52.540001 42.001999C 55.02528 42.001999 57.040001 39.987282 57.040001 37.501999C 57.040001 35.016716 55.02528 33.001999 52.540001 33.001999C 50.054718 33.001999 48.040001 35.016716 48.040001 37.501999ZM 41.389999 44.192001L 48.689999 39.812M 41.716 48.172001L 48.363998 50.832001"></path></g></g></g><g id="g-root-2_v2zmqw1sow7-stroke" data-item-order="0" transform="translate(549, 135)"><g id="2_v2zmqw1sow7-stroke" fill="none" stroke-linecap="round" stroke-linejoin="round" stroke-miterlimit="4" stroke="#de58a9" stroke-width="2"><g><path d="M 27.865999 17.133999C 27.865053 20.522383 30.611614 23.269712 34 23.269712C 37.388382 23.269712 40.134945 20.522383 40.133999 17.133999C 40.134945 13.745616 37.388382 10.998286 34 10.998286C 30.611614 10.998286 27.865053 13.745616 27.865999 17.133999M 42.178001 50.866001C 42.177052 54.254379 44.923615 57.001709 48.311996 57.001709C 51.700382 57.001709 54.446945 54.254379 54.445995 50.865997C 54.446945 47.477615 51.700382 44.730286 48.311996 44.730286C 44.923615 44.730286 42.177052 47.477615 42.177998 50.865997M 13.554 50.866001C 13.553053 54.254379 16.299616 57.001709 19.688 57.001709C 23.076382 57.001709 25.822945 54.254379 25.821999 50.865997C 25.822945 47.477615 23.076382 44.730286 19.688 44.730286C 16.299616 44.730286 13.553053 47.477615 13.554 50.865997M 34 23.265999L 34 26.844C 34 30.796148 30.796148 34 26.844 34C 22.89185 34 19.688 37.20385 19.688 41.155998L 19.688 44.734001M 34 23.265999L 34 26.844C 34 30.796148 37.20385 34 41.155998 34C 45.108147 34 48.312 37.20385 48.312 41.155998L 48.312 44.734001"></path></g></g></g><g id="g-root-tx_retrieve_1hfpf541acxs-stroke" data-item-order="0" transform="translate(135, 195)"></g><g id="g-root-tx_createan_1luwg6g1afba-stroke" data-item-order="0" transform="translate(327, 195)"></g><g id="g-root-tx_mergeand_58wko1adxg-stroke" data-item-order="0" transform="translate(513, 195)"></g></g></g></svg>