<?xml version="1.0" encoding="utf-8" standalone="yes"?>
<!DOCTYPE svg PUBLIC "-//W3C//DTD SVG 1.1//EN" "http://www.w3.org/Graphics/SVG/1.1/DTD/svg11.dtd">
<svg width="538" height="453" viewBox="0 10 538 453" style="fill:none;stroke:none;fill-rule:evenodd;clip-rule:evenodd;stroke-linecap:round;stroke-linejoin:round;stroke-miterlimit:1.5;" version="1.1" xmlns="http://www.w3.org/2000/svg" xmlns:xlink="http://www.w3.org/1999/xlink"><style id="fontImports">@import url("https://fonts.googleapis.com/css2?family=Shantell+Sans:wght@300..800&amp;display=block");</style><rect id="" x="0" y="0" width="537.748" height="452.578" style="fill: #ffffff;"></rect><g id="items" style="isolation: isolate"><g id="blend" style="mix-blend-mode: normal"><g id="g-root-tf_1ha2ixn1h1kb9r-fill" data-item-order="-243834" transform="translate(-8, -8)"><g id="tf_1ha2ixn1h1kb9r-fill" stroke="none" fill="#ffffff"><g><path d="M 10.004023 10L 543.754023 10L 543.754023 466.83L 10.004023 466.83Z"></path></g></g></g><g id="g-root-1.gauge-filled-1_sy_8x5ra31grjbwn-fill" data-item-order="-59525" transform="translate(261.74798583984375, 136.00244140625)"><g id="1.gauge-filled-1_sy_8x5ra31grjbwn-fill" stroke="none" fill="#dce9ff"><g><path d="M 16.500031 5L 10.600031 4.6L 8.800031 24.5L 15.000031 25ZM 8.800031 24.5L 41.200031 28.1L 34.100031 7.2L 10.600031 4.6ZM 34.100031 7.2L 9.600031 30.7L 20.300031 48.1L 41.200031 28.1ZM 20.300031 48.1L 65.400031 31.9L 54.400031 14.6L 9.600031 30.7ZM 54.400031 14.6L 8.500031 60.1L 20.100031 76.8L 65.400031 31.9ZM 20.100031 76.8L 92.500031 42.8L 81.500031 25.9L 8.500031 60.1ZM 81.500031 25.9L 15.000031 83.8L 26.500031 100.3L 92.500031 42.8ZM 26.500031 100.3L 101.200031 59.6L 89.500031 43.1L 15.000031 83.8ZM 89.500031 43.1L 33.000031 94L 44.000031 111.1L 101.200031 59.6ZM 44.000031 111.1L 118.000031 78.9L 106.900031 62L 33.000031 94ZM 106.900031 62L 46.300031 118.6L 58.200031 134.9L 118.000031 78.9ZM 58.200031 134.9L 129.800031 95.4L 118.700031 78.7L 46.300031 118.6ZM 118.700031 78.7L 61.300031 123.8L 70.500031 142.1L 129.800031 95.4ZM 70.500031 142.1L 134.100031 124.5L 125.100031 106.3L 61.300031 123.8ZM 125.100031 106.3L 96.800031 127.8L 101.600031 149.3L 134.100031 124.5ZM 101.600031 149.3L 127.800031 155L 120.400031 132.9L 96.800031 127.8ZM 120.400031 132.9L 113.800031 140.6L 129.000031 153.6L 127.800031 155Z" fill-rule="nonzero"></path></g></g></g><g id="g-root-2.gauge-filled-2_sy_4hyq8r1grj9j4-fill" data-item-order="-59521" transform="translate(266.18402099609375, 261.845458984375)"><g id="2.gauge-filled-2_sy_4hyq8r1grj9j4-fill" stroke="none" fill="#d1f4ff"><g><path d="M 132.963995 27.556982L 128.863995 20.756982L 107.863995 24.856982L 115.863995 37.956982ZM 107.863995 24.856982L 103.063995 53.856982L 124.163995 48.656982L 128.863995 20.756982ZM 124.163995 48.656982L 96.763995 12.456982L 78.263995 21.156982L 103.063995 53.856982ZM 78.263995 21.156982L 90.963995 74.656982L 109.063995 64.456982L 96.763995 12.456982ZM 109.063995 64.456982L 51.663995 7.656982L 35.463995 19.656982L 90.963995 74.656982ZM 35.463995 19.656982L 75.563995 95.056982L 91.863995 83.156982L 51.663995 7.656982ZM 91.863995 83.156982L 40.163995 30.056982L 24.063995 42.256982L 75.563995 95.056982ZM 24.063995 42.256982L 61.963995 107.456982L 78.263995 95.756982L 40.163995 30.056982ZM 78.263995 95.756982L 26.063995 36.956982L 9.363995 48.256982L 61.963995 107.456982ZM 9.363995 48.256982L 45.163995 118.656982L 61.863995 107.256982L 26.063995 36.956982ZM 61.863995 107.256982L 24.563995 65.956982L 5.763995 74.956982L 45.163995 118.656982ZM 5.763995 74.956982L 13.563995 123.456982L 32.763995 117.056982L 24.563995 65.956982ZM 32.763995 117.056982L 27.063995 106.056982L 9.363995 115.356982L 13.563995 123.456982Z" fill-rule="nonzero"></path></g></g></g><g id="g-root-3.gauge-filled-3_sy_4hyq8r1grj9j5-fill" data-item-order="-59517" transform="translate(185.94500732421875, 286.701416015625)"><g id="3.gauge-filled-3_sy_4hyq8r1grj9j5-fill" stroke="none" fill="#c8ffe5"><g><path d="M 4.403009 78.701025L 9.903009 83.601025L 32.303009 76.701025L 17.603009 63.701025ZM 32.303009 76.701025L 39.603009 48.101025L 17.803009 52.401025L 9.903009 83.601025ZM 17.803009 52.401025L 50.003009 95.201025L 67.503009 85.201025L 39.603009 48.101025ZM 67.503009 85.201025L 47.103009 34.501025L 29.603009 44.601025L 50.003009 95.201025ZM 29.603009 44.601025L 71.203009 97.601025L 89.303009 88.301025L 47.103009 34.501025ZM 89.303009 88.301025L 67.603009 16.401025L 49.303009 24.801025L 71.203009 97.601025ZM 49.303009 24.801025L 78.403009 70.601025L 97.903009 64.001025L 67.603009 16.401025ZM 97.903009 64.001025L 93.403009 14.801025L 73.803009 19.701025L 78.403009 70.601025ZM 73.803009 19.701025L 79.603009 33.401025L 98.003009 25.501025L 93.403009 14.801025Z" fill-rule="nonzero"></path></g></g></g><g id="g-root-4.gauge-filled-4_sy_4hyq8r1grj9j6-fill" data-item-order="-59513" transform="translate(146.7230224609375, 267.286376953125)"><g id="4.gauge-filled-4_sy_4hyq8r1grj9j6-fill" stroke="none" fill="#e9ffb9"><g><path d="M 7.724994 31.116064L 7.324994 32.416064L 23.924994 46.116064L 26.724994 37.216064ZM 23.924994 46.116064L 43.224994 35.516064L 22.124994 24.216064L 7.324994 32.416064ZM 22.124994 24.216064L 26.424994 73.116064L 46.724994 76.016064L 43.224994 35.516064ZM 46.724994 76.016064L 68.324994 20.116064L 48.124994 16.916064L 26.424994 73.116064ZM 48.124994 16.916064L 51.724994 73.816064L 71.824994 75.016064L 68.324994 20.116064ZM 71.824994 75.016064L 82.824994 17.616064L 62.524994 17.416064L 51.724994 73.816064ZM 62.524994 17.416064L 68.324994 50.716064L 89.324994 54.616064L 82.824994 17.616064ZM 89.324994 54.616064L 106.224994 26.216064L 83.024994 26.116064L 68.324994 50.716064ZM 83.024994 26.116064L 88.924994 36.316064L 106.224994 26.316064L 106.224994 26.216064Z" fill-rule="nonzero"></path></g></g></g><g id="g-root-5.gauge-filled-5_sy_1unfryz1grja4r-fill" data-item-order="-59509" transform="translate(141.74810791015625, 238.060546875)"><g id="5.gauge-filled-5_sy_1unfryz1grja4r-fill" stroke="none" fill="#fff8b6"><g><path d="M 4.799908 8.041895L 5.099908 14.141895L 25.899908 28.741895L 24.799908 7.041895ZM 25.899908 28.741895L 48.199908 21.941895L 32.499908 5.741895L 5.099908 14.141895ZM 32.499908 5.741895L 16.999908 51.841895L 34.699908 61.941895L 48.199908 21.941895ZM 34.699908 61.941895L 64.099908 27.541895L 46.199908 17.741895L 16.999908 51.841895ZM 46.199908 17.741895L 38.699908 42.441895L 55.999908 54.241895L 64.099908 27.541895ZM 55.999908 54.241895L 93.699908 24.241895L 75.999908 12.841895L 38.699908 42.441895ZM 75.999908 12.841895L 69.199908 39.841895L 88.599908 44.741895L 93.699908 24.241895Z" fill-rule="nonzero"></path></g></g></g><g id="g-root-6.gauge-filled-6_sy_1unfryz1grja4s-fill" data-item-order="-59505" transform="translate(143.09701538085938, 136.00244140625)"><g id="6.gauge-filled-6_sy_1unfryz1grja4s-fill" stroke="none" fill="#ebebeb"><g><path d="M 3.651001 107.9L 10.151001 114.3L 29.551001 105.3L 17.651001 93.6ZM 29.551001 105.3L 27.651001 79.3L 8.151001 87.4L 10.151001 114.3ZM 8.151001 87.4L 39.951001 124L 58.251001 114.6L 27.651001 79.3ZM 58.251001 114.6L 44.251001 56.7L 25.651001 64.8L 39.951001 124ZM 25.651001 64.8L 64.651001 123.8L 82.651001 114.8L 44.251001 56.7ZM 82.651001 114.8L 55.951001 39L 38.351001 49.3L 64.651001 123.8ZM 38.351001 49.3L 90.951001 110L 107.551001 98.5L 55.951001 39ZM 107.551001 98.5L 67.851001 25.2L 51.251001 36.7L 90.951001 110ZM 51.251001 36.7L 104.151001 97.4L 120.751001 85.9L 67.851001 25.2ZM 120.751001 85.9L 86.351001 21.2L 69.851001 32.8L 104.151001 97.4ZM 69.851001 32.8L 119.351001 86.6L 136.251001 75.4L 86.351001 21.2ZM 136.251001 75.4L 107.751001 12.9L 90.751001 23.7L 119.351001 86.6ZM 90.751001 23.7L 116.851001 54.8L 135.251001 45.6L 107.751001 12.9ZM 135.251001 45.6L 126.051001 6.7L 107.651001 15.9L 116.851001 54.8ZM 107.651001 15.9L 117.951001 28.3L 133.351001 15.6L 126.051001 6.7Z" fill-rule="nonzero"></path></g></g></g><g id="g-root-tx_distribu_1q7m9uj1grjax1-fill" data-item-order="0" transform="translate(147.748046875, 52.002685546875)"><g id="tx_distribu_1q7m9uj1grjax1-fill" stroke="none" fill="#484848"><g><text style="font: bold 25px &quot;Shantell Sans&quot;, cursive; white-space: pre;" font-weight="bold" font-size="25px" font-family="'Shantell Sans', cursive"><tspan x="17.1" y="41.5" dominant-baseline="ideographic">Lines of code of </tspan><tspan x="52.66" y="71.5" dominant-baseline="ideographic">logstorage</tspan></text></g></g></g><g id="g-root-tx_16701oth_v47yhn1h1ag3w-fill" data-item-order="0" transform="translate(47.596038818359375, 136.49462890625)"><g id="tx_16701oth_v47yhn1h1ag3w-fill" stroke="none" fill="#484848"><g><text style="font: 20px &quot;Shantell Sans&quot;, cursive; white-space: pre;" font-size="20px" font-family="'Shantell Sans', cursive"><tspan x="16.35" y="35.5" dominant-baseline="ideographic">16701 others</tspan></text></g></g></g><g id="g-root-tx_20206pip_1hbz9ln1grjbpq-fill" data-item-order="0" transform="translate(357.1300048828125, 149.724609375)"><g id="tx_20206pip_1hbz9ln1grjbpq-fill" stroke="none" fill="#484848"><g><text style="font: 20px &quot;Shantell Sans&quot;, cursive; white-space: pre;" font-size="20px" font-family="'Shantell Sans', cursive"><tspan x="12" y="35.5" dominant-baseline="ideographic">20206 pipe</tspan></text></g></g></g><g id="g-root-book_1ulj1az1h1k9ou-fill" data-item-order="0" transform="translate(191.71005249023438, 177.501708984375)"></g><g id="g-root-mana_zog3mj1grnh1q-fill" data-item-order="0" transform="translate(304.19464111328125, 185.90185546875)"></g><g id="g-root-tx_5161pars_1hefujf1h1696s-fill" data-item-order="0" transform="translate(16.000030517578125, 252.696533203125)"><g id="tx_5161pars_1hefujf1h1696s-fill" stroke="none" fill="#484848"><g><text style="font: 20px &quot;Shantell Sans&quot;, cursive; white-space: pre;" font-size="20px" font-family="'Shantell Sans', cursive"><tspan x="19.22" y="35.5" dominant-baseline="ideographic">5161 parser</tspan></text></g></g></g><g id="g-root-tree_147cqy31fda3np-fill" data-item-order="0" transform="translate(145.44375610351562, 244.837890625)"></g><g id="g-root-2_zs6icr1fxq3nt-fill" data-item-order="0" transform="translate(166.6243896484375, 289.41796875)"></g><g id="g-root-2_dj809n1growlj-fill" data-item-order="0" transform="translate(299.15509033203125, 295.429443359375)"></g><g id="g-root-tx_7031bloc_94m4wr1h13h8n-fill" data-item-order="0" transform="translate(36.916015625, 325.9326171875)"><g id="tx_7031bloc_94m4wr1h13h8n-fill" stroke="none" fill="#484848"><g><text style="font: 20px &quot;Shantell Sans&quot;, cursive; white-space: pre;" font-size="20px" font-family="'Shantell Sans', cursive"><tspan x="22.67" y="35.5" dominant-baseline="ideographic">7031 block</tspan></text></g></g></g><g id="g-root-grap_94m4wr1h13h8m-fill" data-item-order="0" transform="translate(219.3712158203125, 320.97607421875)"></g><g id="g-root-tx_15405fil_zog3mj1grnh1r-fill" data-item-order="0" transform="translate(349.1920166015625, 346.722412109375)"><g id="tx_15405fil_zog3mj1grnh1r-fill" stroke="none" fill="#484848"><g><text style="font: 20px &quot;Shantell Sans&quot;, cursive; white-space: pre;" font-size="20px" font-family="'Shantell Sans', cursive"><tspan x="12" y="35.5" dominant-baseline="ideographic">15405 filter</tspan></text></g></g></g><g id="g-root-tx_9357stat_dj809n1growlk-fill" data-item-order="0" transform="translate(106.21600341796875, 376.83642578125)"><g id="tx_9357stat_dj809n1growlk-fill" stroke="none" fill="#484848"><g><text style="font: 20px &quot;Shantell Sans&quot;, cursive; white-space: pre;" font-size="20px" font-family="'Shantell Sans', cursive"><tspan x="20.95" y="35.5" dominant-baseline="ideographic">9357 stats</tspan></text></g></g></g><g id="g-root-tf_1ha2ixn1h1kb9r-stroke" data-item-order="-243834" transform="translate(-8, -8)"></g><g id="g-root-1.gauge-filled-1_sy_8x5ra31grjbwn-stroke" data-item-order="-59525" transform="translate(261.74798583984375, 136.00244140625)"><g id="1.gauge-filled-1_sy_8x5ra31grjbwn-stroke" fill="none" stroke-linecap="round" stroke-linejoin="round" stroke-miterlimit="4" stroke="#484848" stroke-width="2"><g><path d="M 10.000031 10C 26.500031 9.1 42.300031 14.4 57.500031 19.8C 74.400031 25.8 89.100031 37.5 100.900031 51.7C 111.600031 64.5 120.500031 78.8 124.700031 94.6C 129.200031 111.8 130.600031 129.6 128.700031 147.7C 114.100031 146.6 99.800031 142.9 85.200031 141.2C 73.200031 139.9 61.000031 138.8 49.200031 135.8C 51.700031 124.6 48.100031 112.4 40.000031 104.1C 31.900031 95.9 21.500031 91.2 10.000031 90.4C 8.800031 63.6 10.300031 36.8 10.000031 10"></path><path d="M 10.000031 10C 44.916629 9.999911 78.101681 25.207938 100.89744 51.656412C 123.693199 78.104886 133.838697 113.170548 128.687043 147.705007L 49.167031 135.843C 50.867186 124.446518 47.519186 112.874704 39.996508 104.146615C 32.473831 95.418527 21.522619 90.399867 10.000024 90.399995L 10.000031 10Z"></path></g></g></g><g id="g-root-2.gauge-filled-2_sy_4hyq8r1grj9j4-stroke" data-item-order="-59521" transform="translate(266.18402099609375, 261.845458984375)"><g id="2.gauge-filled-2_sy_4hyq8r1grj9j4-stroke" fill="none" stroke-linecap="round" stroke-linejoin="round" stroke-miterlimit="4" stroke="#484848" stroke-width="2"><g><path d="M 124.263995 21.856982C 121.263995 34.256982 118.263995 46.256982 113.163995 57.356982C 107.863995 68.856982 99.563995 78.356982 91.563995 87.856982C 82.063995 99.156982 69.363995 107.956982 55.463995 113.256982C 43.863995 117.756982 31.963995 122.956982 18.963995 123.356982C 19.063995 111.156982 16.363995 99.056982 14.863995 86.956982C 13.163995 72.456982 12.963995 57.756982 9.963995 43.556982C 27.663995 40.156982 43.763995 27.956982 44.763995 9.956982C 71.363995 12.756982 97.663995 18.556982 124.263995 21.856982"></path><path d="M 124.250995 21.861982C 116.227951 75.645425 73.041383 117.311275 19.005002 123.401995L 9.999995 43.507982C 27.831859 41.49798 42.083312 27.748369 44.730986 9.999975L 124.250995 21.861982Z"></path></g></g></g><g id="g-root-3.gauge-filled-3_sy_4hyq8r1grj9j5-stroke" data-item-order="-59517" transform="translate(185.94500732421875, 286.701416015625)"><g id="3.gauge-filled-3_sy_4hyq8r1grj9j5-stroke" fill="none" stroke-linecap="round" stroke-linejoin="round" stroke-miterlimit="4" stroke="#484848" stroke-width="2"><g><path d="M 99.203009 98.501025C 67.103009 101.401025 33.703009 94.201025 10.003009 72.301025C 27.003009 51.601025 45.103009 31.701025 60.803009 10.001025C 69.003009 16.801025 79.703009 20.401025 90.203009 18.701025C 95.103009 45.001025 94.603009 72.201025 99.203009 98.501025"></path><path d="M 99.244009 98.546025C 67.180867 102.159975 35.01327 92.709455 10.000011 72.327037L 60.788009 10.000025C 69.042541 16.726243 79.658042 19.844823 90.239002 18.652016L 99.244009 98.546025Z"></path></g></g></g><g id="g-root-4.gauge-filled-4_sy_4hyq8r1grj9j6-stroke" data-item-order="-59513" transform="translate(146.7230224609375, 267.286376953125)"><g id="4.gauge-filled-4_sy_4hyq8r1grj9j6-stroke" fill="none" stroke-linecap="round" stroke-linejoin="round" stroke-miterlimit="4" stroke="#484848" stroke-width="2"><g><path d="M 49.224994 91.716064C 29.624994 77.616064 15.724994 56.316064 10.024994 32.916064C 35.624994 25.216064 61.124994 16.716064 87.024994 10.016064C 90.624994 17.116064 93.124994 25.416064 100.024994 29.416064C 91.124994 39.116064 84.024994 50.416064 75.024994 60.016064C 65.724994 70.016064 58.224994 81.516064 49.224994 91.716064"></path><path d="M 49.221994 91.742064C 30.535992 76.515703 16.868545 56.014881 9.999994 32.910072L 87.066994 10.000064C 89.333461 17.62477 93.843631 24.3902 100.009988 29.415056L 49.221994 91.742064Z"></path></g></g></g><g id="g-root-5.gauge-filled-5_sy_1unfryz1grja4r-stroke" data-item-order="-59509" transform="translate(141.74810791015625, 238.060546875)"><g id="5.gauge-filled-5_sy_1unfryz1grja4r-stroke" fill="none" stroke-linecap="round" stroke-linejoin="round" stroke-miterlimit="4" stroke="#484848" stroke-width="2"><g><path d="M 14.999908 62.141895C 10.599908 45.041895 6.999908 27.141895 11.299908 10.041895C 37.899908 13.941895 64.199908 19.441895 90.799908 22.041895C 89.499908 27.741895 89.499908 34.041895 91.999908 39.241895C 66.599908 47.641895 41.099908 55.941895 14.999908 62.141895"></path><path d="M 14.974908 62.135895C 9.950617 45.234681 8.712593 27.433908 11.348909 9.9999L 90.844908 22.020895C 89.975038 27.77418 90.383729 33.648478 92.041904 39.225887L 14.974908 62.135895Z"></path></g></g></g><g id="g-root-6.gauge-filled-6_sy_1unfryz1grja4s-stroke" data-item-order="-59505" transform="translate(143.09701538085938, 136.00244140625)"><g id="6.gauge-filled-6_sy_1unfryz1grja4s-stroke" fill="none" stroke-linecap="round" stroke-linejoin="round" stroke-miterlimit="4" stroke="#484848" stroke-width="2"><g><path d="M 9.951001 112.1C 15.751001 82 29.851001 55.1 52.451001 37.3C 73.651001 20.6 99.951001 9.8 128.651001 10C 130.151001 24.1 128.251001 38.5 128.651001 52.7C 129.051001 65.2 127.651001 77.9 128.651001 90.4C 109.151001 88.5 92.451001 104.7 89.451001 124.1C 62.951001 120.1 36.751001 114.1 9.951001 112.1"></path><path d="M 10.000001 112.058C 18.873125 53.37969 69.305603 10.000049 128.651007 10L 128.651001 90.4C 109.066994 90.399918 92.4242 104.715144 89.495996 124.078993L 10.000001 112.058Z"></path></g></g></g><g id="g-root-tx_distribu_1q7m9uj1grjax1-stroke" data-item-order="0" transform="translate(147.748046875, 52.002685546875)"></g><g id="g-root-tx_16701oth_v47yhn1h1ag3w-stroke" data-item-order="0" transform="translate(47.596038818359375, 136.49462890625)"></g><g id="g-root-tx_20206pip_1hbz9ln1grjbpq-stroke" data-item-order="0" transform="translate(357.1300048828125, 149.724609375)"></g><g id="g-root-book_1ulj1az1h1k9ou-stroke" data-item-order="0" transform="translate(191.71005249023438, 177.501708984375)"><g id="book_1ulj1az1h1k9ou-stroke" fill="none" stroke-linecap="round" stroke-linejoin="round" stroke-miterlimit="4" stroke="#484848" stroke-width="2"><g><path d="M 37.75 42.25C 37.75 43 37 43.75 36.25 43.75C 29.799999 43.449997 23.200001 44.5 16.75 43.75C 16 43.599998 15.25 43 15.25 42.25C 16 32.799999 14.35 23.200001 15.25 13.75C 15.4 13 16 12.1 16.75 12.25C 23.049999 13.75 29.799999 11.95 36.25 12.25C 37.150002 12.25 37.75 13 37.75 13.75C 37.300003 23.200001 40.599998 33.25 37.75 42.25M 31.75 23.5C 31.599998 23.950001 31.450001 24.25 31 24.25C 28.450001 24.25 26.049999 24.099998 23.5 24.25C 23.049999 24.25 22.900002 23.950001 22.75 23.5C 22.450001 22 23.049999 20.5 22.75 19C 22.599998 18.549999 23.049999 18.1 23.5 18.25C 25.900002 18.85 28.450001 18.25 31 18.25C 31.450001 18.25 31.900002 18.549999 31.75 19C 31.450001 20.5 32.200001 22 31.75 23.5M 13.75 16.75C 15.25 16.9 16.75 16.9 18.25 16.75M 13.75 24.25C 15.25 24.700001 16.75 24.700001 18.25 24.25M 13.75 31.75C 15.25 31.450001 16.75 31.900002 18.25 31.75M 13.75 39.25C 15.25 39.550003 16.75 39.400002 18.25 39.25M 42.25 21.25C 40.75 21.4 39.25 21.25 37.75 21.25C 37.75 19.299999 38.199997 17.200001 37.75 15.25C 38.650002 15.1 39.849998 15.4 40.75 15.25C 41.5 15.1 42.25 16 42.25 16.75C 42.400002 18.25 42.25 19.75 42.25 21.25M 37.75 21.25C 39.25 21.1 40.75 21.700001 42.25 21.25C 42.099998 23.200001 41.949997 25.299999 42.25 27.25C 40.75 27.400002 39.25 26.799999 37.75 27.25C 37.599998 25.299999 37.449997 23.200001 37.75 21.25M 37.75 27.25C 39.25 27.099998 40.75 27.700001 42.25 27.25C 42.400002 29.200001 42.849998 31.299999 42.25 33.25C 40.75 33.25 39.25 33.700001 37.75 33.25C 37.599998 31.299999 37.300003 29.200001 37.75 27.25M 42.25 37.75C 42.400002 38.5 41.5 39.25 40.75 39.25C 39.699997 39.099998 38.650002 39.550003 37.75 39.25C 37.150002 37.300003 38.349998 35.199997 37.75 33.25C 39.099998 32.650002 40.75 33.549999 42.25 33.25C 42.25 34.75 42.099998 36.25 42.25 37.75"></path><path d="M 37.75 42.25C 37.75 43.078426 37.078426 43.75 36.25 43.75L 16.75 43.75C 15.921573 43.75 15.25 43.078426 15.25 42.25L 15.25 13.75C 15.25 12.921573 15.921573 12.25 16.75 12.25L 36.25 12.25C 37.078426 12.25 37.75 12.921573 37.75 13.75ZM 31.75 23.5C 31.75 23.914213 31.414213 24.25 31 24.25L 23.5 24.25C 23.085787 24.25 22.75 23.914213 22.75 23.5L 22.75 19C 22.75 18.585787 23.085787 18.25 23.5 18.25L 31 18.25C 31.414213 18.25 31.75 18.585787 31.75 19ZM 13.75 16.75L 18.25 16.75M 13.75 24.25L 18.25 24.25M 13.75 31.75L 18.25 31.75M 13.75 39.25L 18.25 39.25M 42.25 21.25L 37.75 21.25L 37.75 15.25L 40.75 15.25C 41.578426 15.25 42.25 15.921573 42.25 16.75ZM 37.75 21.25L 42.25 21.25L 42.25 27.25L 37.75 27.25ZM 37.75 27.25L 42.25 27.25L 42.25 33.25L 37.75 33.25ZM 42.25 37.75C 42.25 38.578426 41.578426 39.25 40.75 39.25L 37.75 39.25L 37.75 33.25L 42.25 33.25Z"></path></g></g></g><g id="g-root-mana_zog3mj1grnh1q-stroke" data-item-order="0" transform="translate(304.19464111328125, 185.90185546875)"><g id="mana_zog3mj1grnh1q-stroke" fill="none" stroke-linecap="round" stroke-linejoin="round" stroke-miterlimit="4" stroke="#484848" stroke-width="2"><g><path d="M 23.049999 32.349998C 26.349998 32.799999 29.650002 32.049999 32.950001 32.349998C 34.449997 36.400002 33.849998 41.050003 32.950001 45.25C 29.650002 45.25 26.349998 45.849998 23.049999 45.25C 22.150002 41.050003 22 36.550003 23.049999 32.349998M 18.549999 21.549999C 19.9 23.950001 21.700001 25.900002 23.049999 28.450001C 26.349998 28.599998 29.950001 29.650002 32.950001 28.450001C 33.849998 25.75 35.949997 23.799999 37.449997 21.549999C 31.150002 21.1 24.549999 23.349998 18.549999 21.549999M 40 17.65C 40.900002 14.8 43 12.55 45.25 10.75C 33.849998 9.25 22.150002 9.85 10.75 10.75C 13.3 12.25 14.05 15.4 16 17.65C 23.950001 17.950001 32.049999 18.549999 40 17.65"></path><path d="M 23.017 32.368L 32.983002 32.368L 32.983002 45.25L 23.017 45.25ZM 18.599499 21.4825L 23.017 28.3825L 32.982998 28.3825L 37.400501 21.4825L 18.599499 21.4825ZM 39.973 17.5765L 45.25 10.75L 10.75 10.75L 16.027 17.5765L 39.973 17.5765Z"></path></g></g></g><g id="g-root-tx_5161pars_1hefujf1h1696s-stroke" data-item-order="0" transform="translate(16.000030517578125, 252.696533203125)"></g><g id="g-root-tree_147cqy31fda3np-stroke" data-item-order="0" transform="translate(145.44375610351562, 244.837890625)"><g id="tree_147cqy31fda3np-stroke" fill="none" stroke-linecap="round" stroke-linejoin="round" stroke-miterlimit="4" stroke="#484848" stroke-width="2"><g><path d="M 40.857143 37C 32.371429 36.742855 23.628572 38.028568 15.142857 37C 18.742857 33.142857 22.085714 29.028572 24.142857 24.142857C 22.085714 24.4 19.771429 23.371428 17.714285 24.142857C 19.771429 19 24.914286 15.914286 28 11.285714C 32.628571 14.371428 34.942856 19.771429 38.285713 24.142857C 36.228569 23.628572 33.914288 23.628572 31.857143 24.142857C 34.685715 28.514284 38.028568 32.628571 40.857143 37M 28 37C 28.514284 39.571426 28.514284 42.142857 28 44.714287"></path><path d="M 40.857143 37L 15.142857 37L 24.142857 24.142857L 17.714285 24.142857L 28 11.285714L 38.285713 24.142857L 31.857143 24.142857L 40.857143 37ZM 28 37L 28 44.714287"></path></g></g></g><g id="g-root-2_zs6icr1fxq3nt-stroke" data-item-order="0" transform="translate(166.6243896484375, 289.41796875)"><g id="2_zs6icr1fxq3nt-stroke" fill="none" stroke-linecap="round" stroke-linejoin="round" stroke-miterlimit="4" stroke="#484848" stroke-width="2"><g><path d="M 28 11.285714C 27.485714 14.628572 28.771429 18.228571 28 21.571428M 31.857143 38.285713C 33.914288 38.285713 36.228569 39.057144 38.285713 38.285713M 11.285714 21.571428C 22.342857 21.571428 33.657143 20.285713 44.714287 21.571428C 46.257145 28.257143 45.742855 35.457142 44.714287 42.142857C 44.457142 43.42857 43.42857 44.457142 42.142857 44.714287C 32.885712 46.257145 23.114285 42.914288 13.857142 44.714287C 12.571428 44.971428 10.771429 43.42857 11.285714 42.142857C 13.342857 35.457142 12.571428 28.257143 11.285714 21.571428M 11.285714 21.571428C 13.085714 19.514286 13.857142 16.685715 15.142857 14.114285C 15.914286 12.314285 17.714285 10.771429 19.514286 11.285714C 25.171429 10.514286 31.085714 13.342857 36.485714 11.285714C 38.285713 10.514286 40.599998 12.314285 41.114285 14.114285C 41.628571 16.942858 42.657143 19.771429 44.714287 21.571428"></path><path d="M 28 11.285714L 28 21.571428M 31.857143 38.285713L 38.285713 38.285713M 11.285714 21.571428L 44.714287 21.571428L 44.714287 21.571428L 44.714287 42.142857C 44.714287 43.563019 43.563019 44.714287 42.142857 44.714287L 13.857142 44.714287C 12.436982 44.714287 11.285714 43.563019 11.285714 42.142857L 11.285714 21.571428L 11.285714 21.571428ZM 11.285714 21.571428L 15.142857 14.14C 15.990263 12.433079 17.712076 11.334681 19.617144 11.285714L 36.382858 11.285714C 38.334427 11.28675 40.117264 12.392309 40.985714 14.14L 44.714287 21.571428"></path></g></g></g><g id="g-root-2_dj809n1growlj-stroke" data-item-order="0" transform="translate(299.15509033203125, 295.429443359375)"><g id="2_dj809n1growlj-stroke" fill="none" stroke-linecap="round" stroke-linejoin="round" stroke-miterlimit="4" stroke="#484848" stroke-width="2"><g><path d="M 44.714287 11.285714C 33.657143 10 22.342857 9.742857 11.285714 11.285714C 15.142857 17.714285 21.828571 22.342857 24.142857 29.285713C 23.885714 34.42857 24.4 39.571426 24.142857 44.714287C 26.457144 42.657143 29.542856 41.628571 31.857143 39.571426C 32.371429 36.228569 32.371429 32.628571 31.857143 29.285713C 36.742855 23.628572 42.142857 18.228571 44.714287 11.285714"></path><path d="M 44.714287 11.285714L 11.285714 11.285714L 24.142857 29.285713L 24.142857 44.714287L 31.857143 39.571426L 31.857143 29.285713L 44.714287 11.285714Z"></path></g></g></g><g id="g-root-tx_7031bloc_94m4wr1h13h8n-stroke" data-item-order="0" transform="translate(36.916015625, 325.9326171875)"></g><g id="g-root-grap_94m4wr1h13h8m-stroke" data-item-order="0" transform="translate(219.3712158203125, 320.97607421875)"><g id="grap_94m4wr1h13h8m-stroke" fill="none" stroke-linecap="round" stroke-linejoin="round" stroke-miterlimit="4" stroke="#484848" stroke-width="2"><g><path d="M 20.049999 19C 21.4 22.75 19 27.099998 20.049999 31C 26.049999 30.700001 32.049999 31.299999 38.050003 31M 24.549999 25.75C 24.400002 27.549999 23.950001 29.349998 24.549999 31M 29.049999 23.5C 29.650002 25.900002 29.049999 28.450001 29.049999 31M 33.549999 20.5C 33.700001 23.950001 32.5 27.700001 33.549999 31M 28.299999 11.5C 18.85 11.65 11.2 17.950001 11.05 25.75C 10.6 29.650002 13 33.549999 16.15 35.800003C 15.25 38.800003 13.9 41.650002 12.55 44.5C 15.4 42.099998 18.85 40.599998 22.150002 39.099998C 24.099998 40 26.349998 40.75 28.299999 40C 37.150002 36.400002 46.900002 33.549999 45.550003 25.75C 44.349998 17.950001 37.900002 12.1 28.299999 11.5"></path><path d="M 20.083 19L 20.083 31L 38.083 31M 24.583 25.75L 24.583 31M 29.083 23.5L 29.083 31M 33.583 20.5L 33.583 31M 28.333 11.5C 18.806499 11.5 11.083 17.879499 11.083 25.75C 11.16404 29.718908 13.039475 33.437237 16.182999 35.8615L 12.583 44.5L 22.140999 39.038498C 24.143209 39.675789 26.231815 40.000107 28.333 40C 37.861 40 45.583 33.620499 45.583 25.75C 45.583 17.879499 37.861 11.5 28.333 11.5Z"></path></g></g></g><g id="g-root-tx_15405fil_zog3mj1grnh1r-stroke" data-item-order="0" transform="translate(349.1920166015625, 346.722412109375)"></g><g id="g-root-tx_9357stat_dj809n1growlk-stroke" data-item-order="0" transform="translate(106.21600341796875, 376.83642578125)"></g></g></g></svg>