<?xml version="1.0" encoding="utf-8" standalone="yes"?>
<!DOCTYPE svg PUBLIC "-//W3C//DTD SVG 1.1//EN" "http://www.w3.org/Graphics/SVG/1.1/DTD/svg11.dtd">
<svg width="360" height="312" viewBox="100 10 360 312" style="fill:none;stroke:none;fill-rule:evenodd;clip-rule:evenodd;stroke-linecap:round;stroke-linejoin:round;stroke-miterlimit:1.5;" version="1.1" xmlns="http://www.w3.org/2000/svg" xmlns:xlink="http://www.w3.org/1999/xlink"><style id="fontImports">@import url("https://fonts.googleapis.com/css2?family=Roboto:wght@400;700&amp;display=block");</style><rect id="" x="0" y="0" width="379" height="312" style="fill: #ffffff;"></rect><g id="items" style="isolation: isolate"><g id="blend" style="mix-blend-mode: normal"><g id="g-root-tf_hwix1429o0zp-fill" data-item-order="999758033" transform="translate(-9, -9)"><g id="tf_hwix1429o0zp-fill" stroke="none" fill="#ffffff"><g><path d="M 10 10L 586.11 10L 586.11 430L 10 430Z"></path></g></g></g><g id="g-root-2.cu_sy_1luwg5429cq2v-fill" data-item-order="999957120" transform="translate(176.81546020507812, 164.0498046875)"><g id="2.cu_sy_1luwg5429cq2v-fill" stroke="none" fill="#e3fff2"><g><path d="M 30.545479 87.762367C 27.995625 69.750542 24.360779 52.500248 19.492275 36.304806C 16.773796 27.261681 13.513894 18.499161 10.000001 10.165062L 10.416208 10.827495C 14.700605 15.698707 34.104485 19.355459 56.477276 19.355459C 79.24543 19.355459 97.87339 15.607082 101.713417 10.607313L 102.32093 10.000008C 98.787903 18.366674 95.874901 27.217649 93.14447 36.29977C 88.275116 52.496689 84.640129 69.74868 82.089699 87.762367C 82.089699 92.477211 70.551193 96.299866 56.317703 96.299866C 42.084267 96.299866 30.545479 92.477211 30.545479 87.762367Z"></path></g></g></g><g id="g-root-2.line_sy_1luwg5429cq2w-fill" data-item-order="999957125" transform="translate(254.2415771484375, 211.818359375)"></g><g id="g-root-1.cu_sy_1hf2y0o29cqv5-fill" data-item-order="999957128" transform="translate(111.9500732421875, 70.94921875)"><g id="1.cu_sy_1hf2y0o29cqv5-fill" stroke="none" fill="#e8f9ff"><g><path d="M 12.883544 25.719028C 10.997468 24.783318 9.999998 23.808189 9.999998 22.806246C 9.999998 15.733569 59.691067 10 120.98745 10C 182.284119 10 231.974899 15.733569 231.974899 22.806246C 231.974899 23.815594 230.962936 24.797615 229.049728 25.73959C 209.005844 38.559135 193.007568 55.961124 180.476654 76.802574L 180.476501 76.803352C 175.518997 85.048866 171.104263 93.833252 167.196564 103.087181L 166.680191 103.652802C 162.840164 108.652916 143.914902 112.449974 121.146812 112.449974C 98.774307 112.449974 79.542885 108.783821 75.257774 103.912476L 74.790344 103.116341C 70.913605 93.931435 66.53743 85.208954 61.626236 77.016716L 61.626236 77.016014C 49.068287 56.065567 33.014954 38.584755 12.883544 25.719028Z"></path></g></g></g><g id="g-root-1.line_sy_1hf2y0o29cqv6-fill" data-item-order="999957133" transform="translate(284.1229248046875, 134.98046875)"></g><g id="g-root-log_4gpsc83xisjo-fill" data-item-order="1000000000" transform="translate(171.0560302734375, 21.3369140625)"></g><g id="g-root-tx_logentri_znsxiw29nymj-fill" data-item-order="1000000000" transform="translate(231.0560302734375, 33.3369140625)"><g id="tx_logentri_znsxiw29nymj-fill" stroke="none" fill="#484848"><g><text style="font: 20px Roboto, sans-serif; white-space: pre;" font-size="20px" font-family="Roboto, sans-serif"><tspan x="12.15" y="33.5" dominant-baseline="ideographic">Logs</tspan></text></g></g></g><g id="g-root-2_1qa3h6g29nymf-fill" data-item-order="1000000000" transform="translate(199.09716796875, 110.98046875)"></g><g id="g-root-tx_applyfil_znsxiw29nymi-fill" data-item-order="1000000000" transform="translate(368.074951171875, 122.98046875)"><g id="tx_applyfil_znsxiw29nymi-fill" stroke="none" fill="#484848"><g><text style="font: 20px Roboto, sans-serif; white-space: pre;" font-size="20px" font-family="Roboto, sans-serif"><tspan x="12" y="33.5" dominant-baseline="ideographic">Filters</tspan></text></g></g></g><g id="g-root-chip_404p42jayvd-fill" data-item-order="1000000000" transform="translate(206.02215576171875, 194.7421875)"></g><g id="g-root-tx_transfor_18itgoo29o0zl-fill" data-item-order="1000000000" transform="translate(368.15472412109375, 199.818359375)"><g id="tx_transfor_18itgoo29o0zl-fill" stroke="none" fill="#484848"><g><text style="font: 20px Roboto, sans-serif; white-space: pre;" font-size="20px" font-family="Roboto, sans-serif"><tspan x="12" y="33.5" dominant-baseline="ideographic">Pipes</tspan></text></g></g></g><g id="g-root-fiel_zpocso15cxzh-fill" data-item-order="1000000000" transform="translate(171.0560302734375, 251.849609375)"></g><g id="g-root-tx_processe_1lu9z2029nzeo-fill" data-item-order="1000000000" transform="translate(226.93756103515625, 263.849609375)"><g id="tx_processe_1lu9z2029nzeo-fill" stroke="none" fill="#484848"><g><text style="font: 20px Roboto, sans-serif; white-space: pre;" font-size="20px" font-family="Roboto, sans-serif"><tspan x="13.02" y="33.5" dominant-baseline="ideographic">Results</tspan></text></g></g></g><g id="g-root-tf_hwix1429o0zp-stroke" data-item-order="999758033" transform="translate(-9, -9)"></g><g id="g-root-2.cu_sy_1luwg5429cq2v-stroke" data-item-order="999957120" transform="translate(176.81546020507812, 164.0498046875)"><g id="2.cu_sy_1luwg5429cq2v-stroke" fill="none" stroke-linecap="round" stroke-linejoin="round" stroke-miterlimit="4" stroke="#3cc583" stroke-width="2"><g><path d="M 19.492487 36.304806C 24.361067 52.500248 27.995625 69.750542 30.545773 87.762154C 30.545773 92.477272 42.084267 96.299644 56.317703 96.299644C 70.551193 96.299644 82.089699 92.477272 82.089699 87.762154C 84.640129 69.74868 88.275116 52.496689 93.14447 36.29977C 95.874901 27.217649 98.787903 18.366674 102.32093 10.000008L 101.713417 10.607313C 97.87339 15.607082 79.24543 19.355459 56.477276 19.355459C 34.104485 19.355459 14.700676 15.698707 10.415915 10.827495L 10.000142 10.165062C 13.514176 18.499161 16.774008 27.261681 19.492487 36.304806Z"></path></g></g></g><g id="g-root-2.line_sy_1luwg5429cq2w-stroke" data-item-order="999957125" transform="translate(254.2415771484375, 211.818359375)"><g id="2.line_sy_1luwg5429cq2w-stroke" fill="none" stroke-linecap="round" stroke-linejoin="round" stroke-miterlimit="4" stroke="#969696" stroke-width="2"><g><path d="M 106.758413 10.001953L 11.998413 10.001953"></path><path d="M 17.998413 3.501953L 11.498413 10.001953L 17.998413 16.501953" stroke-dasharray="none"></path></g></g></g><g id="g-root-1.cu_sy_1hf2y0o29cqv5-stroke" data-item-order="999957128" transform="translate(111.9500732421875, 70.94921875)"><g id="1.cu_sy_1hf2y0o29cqv5-stroke" fill="none" stroke-linecap="round" stroke-linejoin="round" stroke-miterlimit="4" stroke="#1eabda" stroke-width="2"><g><path d="M 120.98745 10C 59.690777 10 9.999998 15.733547 9.999998 22.806246C 9.999998 29.878946 59.690777 35.612492 120.98745 35.612492C 182.284119 35.612492 231.974899 29.878946 231.974899 22.806246C 231.974899 15.733547 182.284119 10 120.98745 10M 11.208335 24.728951C 29.522255 35.68042 56.193398 58.424889 74.888802 103.430099C 76.388275 107.039825 93.056664 112.427544 121.058731 112.427544C 147.832245 112.427544 165.065186 108.065018 167.469498 102.465286C 187.794357 55.127773 214.418381 35.131672 231.23114 24.297947"></path></g></g></g><g id="g-root-1.line_sy_1hf2y0o29cqv6-stroke" data-item-order="999957133" transform="translate(284.1229248046875, 134.98046875)"><g id="1.line_sy_1hf2y0o29cqv6-stroke" fill="none" stroke-linecap="round" stroke-linejoin="round" stroke-miterlimit="4" stroke="#969696" stroke-width="2"><g><path d="M 76.87707 9.999023L 11.99707 9.999023"></path><path d="M 17.99707 3.499023L 11.49707 9.999023L 17.99707 16.499023" stroke-dasharray="none"></path></g></g></g><g id="g-root-log_4gpsc83xisjo-stroke" data-item-order="1000000000" transform="translate(171.0560302734375, 21.3369140625)"><g id="log_4gpsc83xisjo-stroke" fill="none" stroke-linecap="round" stroke-linejoin="round" stroke-miterlimit="4" stroke="#4f92ff" stroke-width="2"><g><path d="M 19 27C 19 30.865993 22.134007 34 26 34C 29.865993 34 33 30.865993 33 27C 33 23.134007 29.865993 20 26 20C 22.134007 20 19 23.134007 19 27ZM 23 27C 23 28.656855 24.343147 30 26 30C 27.656855 30 29 28.656855 29 27C 29 25.343147 27.656855 24 26 24C 24.343147 24 23 25.343147 23 27ZM 29 41C 29 42.656857 30.343147 44 32 44C 33.656853 44 35 42.656857 35 41C 35 39.343147 33.656853 38 32 38C 30.343147 38 29 39.343147 29 41ZM 15 41C 15 42.656857 16.343145 44 18 44C 19.656855 44 21 42.656857 21 41C 21 39.343147 19.656855 38 18 38C 16.343145 38 15 39.343147 15 41ZM 26 20L 44 20C 47.865993 20 51 23.134007 51 27C 51 30.865993 47.865993 34 44 34M 25 41C 25 44.865993 28.134008 48 32 48C 35.865993 48 39 44.865993 39 41C 39 37.13401 35.865993 34 32 34C 28.134008 34 25 37.13401 25 41ZM 32 34L 50 34C 53.865993 34 57 37.13401 57 41C 57 44.865993 53.865993 48 50 48L 32 48M 11 41C 11 44.865993 14.134007 48 18 48C 21.865993 48 25 44.865993 25 41C 25 37.13401 21.865993 34 18 34C 14.134007 34 11 37.13401 11 41ZM 32.003998 48L 18 48M 18 34L 32.003998 34M 37 24L 43 24M 43 28L 45 28M 43 38L 45 38M 49 38L 51 38M 47 42L 53 42M 42 44L 44 44M 37 30L 39 30"></path></g></g></g><g id="g-root-tx_logentri_znsxiw29nymj-stroke" data-item-order="1000000000" transform="translate(231.0560302734375, 33.3369140625)"></g><g id="g-root-2_1qa3h6g29nymf-stroke" data-item-order="1000000000" transform="translate(199.09716796875, 110.98046875)"><g id="2_1qa3h6g29nymf-stroke" fill="none" stroke-linecap="round" stroke-linejoin="round" stroke-miterlimit="4" stroke="#1eabda" stroke-width="2"><g><path d="M 56.285713 11.714286L 11.714286 11.714286L 28.857143 35.714287L 28.857143 56.285713L 39.142857 49.428574L 39.142857 35.714287L 56.285713 11.714286Z"></path></g></g></g><g id="g-root-tx_applyfil_znsxiw29nymi-stroke" data-item-order="1000000000" transform="translate(368.074951171875, 122.98046875)"></g><g id="g-root-chip_404p42jayvd-stroke" data-item-order="1000000000" transform="translate(206.02215576171875, 194.7421875)"><g id="chip_404p42jayvd-stroke" fill="none" stroke-linecap="round" stroke-linejoin="round" stroke-miterlimit="4" stroke="#3cc583" stroke-width="2"><g><path d="M 17.826033 16.403198L 36.323929 16.403198C 36.323929 16.403198 37.746845 16.403198 37.746845 17.826132L 37.746845 36.324261C 37.746845 36.324261 37.746845 37.747192 36.323929 37.747192L 17.826033 37.747192C 17.826033 37.747192 16.403118 37.747192 16.403118 36.324261L 16.403118 17.826132C 16.403118 17.826132 16.403118 16.403198 17.826033 16.403198M 27.074982 10.711467L 27.074982 16.403198M 20.671864 10.711467L 20.671864 16.403198M 33.4781 10.711467L 33.4781 16.403198M 10.711457 27.075195L 16.403118 27.075195M 10.711457 33.478394L 16.403118 33.478394M 10.711457 20.671997L 16.403118 20.671997M 27.074982 43.438927L 27.074982 37.747192M 33.4781 43.438927L 33.4781 37.747192M 20.671864 43.438927L 20.671864 37.747192M 43.438503 27.075195L 37.746845 27.075195M 43.438503 20.671997L 37.746845 20.671997M 43.438503 33.478394L 37.746845 33.478394M 22.094778 19.249063L 32.055183 19.249063C 32.055183 19.249063 34.901012 19.249063 34.901012 22.094931L 34.901012 32.055462C 34.901012 32.055462 34.901012 34.901329 32.055183 34.901329L 22.094778 34.901329C 22.094778 34.901329 19.248949 34.901329 19.248949 32.055462L 19.248949 22.094931C 19.248949 22.094931 19.248949 19.249063 22.094778 19.249063M 23.517693 23.517864L 29.209354 23.517864M 23.517693 26.363729L 26.363523 26.363729M 27.786438 30.632528L 30.632269 30.632528"></path></g></g></g><g id="g-root-tx_transfor_18itgoo29o0zl-stroke" data-item-order="1000000000" transform="translate(368.15472412109375, 199.818359375)"></g><g id="g-root-fiel_zpocso15cxzh-stroke" data-item-order="1000000000" transform="translate(171.0560302734375, 251.849609375)"><g id="fiel_zpocso15cxzh-stroke" fill="none" stroke-linecap="round" stroke-linejoin="round" stroke-miterlimit="4" stroke="#44e095" stroke-width="2"><g><path d="M 15.142858 20.285715L 52.857143 20.285715C 52.857143 20.285715 56.285713 20.285715 56.285713 23.714287L 56.285713 44.285713C 56.285713 44.285713 56.285713 47.714287 52.857143 47.714287L 15.142858 47.714287C 15.142858 47.714287 11.714286 47.714287 11.714286 44.285713L 11.714286 23.714287C 11.714286 23.714287 11.714286 20.285715 15.142858 20.285715M 40.857143 39.142857L 34 39.142857M 25.428572 28.857143L 25.428572 39.142857M 20.285715 28.857143L 30.571428 28.857143"></path></g></g></g><g id="g-root-tx_processe_1lu9z2029nzeo-stroke" data-item-order="1000000000" transform="translate(226.93756103515625, 263.849609375)"></g></g></g></svg>