<?xml version="1.0" encoding="utf-8" standalone="yes"?>
<!DOCTYPE svg PUBLIC "-//W3C//DTD SVG 1.1//EN" "http://www.w3.org/Graphics/SVG/1.1/DTD/svg11.dtd">
<svg width="843" height="350" viewBox="0 0 843 350" style="fill:none;stroke:none;fill-rule:evenodd;clip-rule:evenodd;stroke-linecap:round;stroke-linejoin:round;stroke-miterlimit:1.5;" version="1.1" xmlns="http://www.w3.org/2000/svg" xmlns:xlink="http://www.w3.org/1999/xlink"><style id="fontImports">@import url("https://fonts.googleapis.com/css2?family=Roboto:wght@400;700&amp;display=block");</style><rect id="" x="0" y="0" width="842" height="350" style="fill: none;"></rect><g id="items" style="isolation: isolate"><g id="blend" style="mix-blend-mode: normal"><g id="g-root-tf_4hbgqg1jj5czv-fill" data-item-order="-292320" transform="translate(-9, -9)"></g><g id="g-root-0.cu_sy_8vvxiw1jjdu6n-fill" data-item-order="-228090" transform="translate(15, 49)"></g><g id="g-root-3.cu_sy_dbpfnc1jjdu68-fill" data-item-order="-228086" transform="translate(242.1923828125, 187)"></g><g id="g-root-2.cu_sy_4g2feg1jjduyx-fill" data-item-order="-228082" transform="translate(253.6593017578125, 121)"></g><g id="g-root-1.cu_sy_4g2feg1jjduyy-fill" data-item-order="-228078" transform="translate(242.1923828125, 25)"></g><g id="g-root-tx_145iah41jtkemg-fill" data-item-order="0" transform="translate(703.0001220703125, 231)"><g id="tx_145iah41jtkemg-fill" stroke="none" fill="#484848"><g><text style="font: 20px Roboto, sans-serif; white-space: pre;" font-size="20px" font-family="Roboto, sans-serif"><tspan x="12" y="33.5" dominant-baseline="ideographic">_stream_id</tspan></text></g></g></g><g id="g-root-tx_messagef_1lqixyw1jjdtz9-fill" data-item-order="0" transform="translate(482.9999694824219, 61)"><g id="tx_messagef_1lqixyw1jjdtz9-fill" stroke="none" fill="#1eabda"><g><text style="font: 20px Roboto, sans-serif; white-space: pre;" font-size="20px" font-family="Roboto, sans-serif"><tspan x="12" y="33.5" dominant-baseline="ideographic">Message Field</tspan></text></g></g></g><g id="g-root-cn_4ik5fs1hbmqko-fill" data-item-order="0" transform="translate(633, 52)"></g><g id="g-root-tx_4hxukp1hb4emi-fill" data-item-order="0" transform="translate(83.00009155273438, 248)"><g id="tx_4hxukp1hb4emi-fill" stroke="none" fill="#666666"><g><text style="font: 15px Roboto, sans-serif; white-space: pre;" font-size="15px" font-family="Roboto, sans-serif"><tspan x="12" y="30.5" dominant-baseline="ideographic">stream to block</tspan></text></g></g></g><g id="g-root-tx_streamid_1cuvxq01jjdurz-fill" data-item-order="0" transform="translate(482.9999694824219, 253)"><g id="tx_streamid_1cuvxq01jjdurz-fill" stroke="none" fill="#92bd39"><g><text style="font: 20px Roboto, sans-serif; white-space: pre;" font-size="20px" font-family="Roboto, sans-serif"><tspan x="12" y="33.5" dominant-baseline="ideographic">Stream Identification</tspan></text></g></g></g><g id="g-root-data_zk1mzc1ipdlvz-fill" data-item-order="0" transform="translate(111, 92)"></g><g id="g-root-cn_1lviavc1hv97nr-fill" data-item-order="0" transform="translate(681, 243)"></g><g id="g-root-tx_1cu9myw1jj2kn5-fill" data-item-order="0" transform="translate(670.0001220703125, 85)"><g id="tx_1cu9myw1jj2kn5-fill" stroke="none" fill="#484848"><g><text style="font: 20px Roboto, sans-serif; white-space: pre;" font-size="20px" font-family="Roboto, sans-serif"><tspan x="12" y="33.5" dominant-baseline="ideographic">others</tspan></text></g></g></g><g id="g-root-tx_1d2dpxk1kdfe2u-fill" data-item-order="0" transform="translate(702.0001220703125, 274)"><g id="tx_1d2dpxk1kdfe2u-fill" stroke="none" fill="#484848"><g><text style="font: 20px Roboto, sans-serif; white-space: pre;" font-size="20px" font-family="Roboto, sans-serif"><tspan x="12" y="33.5" dominant-baseline="ideographic">tags</tspan></text></g></g></g><g id="g-root-tx_victoria_1q6cg3c1jjdt70-fill" data-item-order="0" transform="translate(81, 157)"><g id="tx_victoria_1q6cg3c1jjdt70-fill" stroke="none" fill="#969696"><g><text style="font: bold 20px Roboto, sans-serif; white-space: pre;" font-weight="bold" font-size="20px" font-family="Roboto, sans-serif"><tspan x="12.8" y="33.5" dominant-baseline="ideographic">Data Model</tspan></text></g></g></g><g id="g-root-six_v8lpx41jjjgg4-fill" data-item-order="0" transform="translate(423.0000915527344, 145)"></g><g id="g-root-tx_timefiel_1cuvxq01jjdury-fill" data-item-order="0" transform="translate(482.9999694824219, 157)"><g id="tx_timefiel_1cuvxq01jjdury-fill" stroke="none" fill="#3cc583"><g><text style="font: 20px Roboto, sans-serif; white-space: pre;" font-size="20px" font-family="Roboto, sans-serif"><tspan x="12" y="33.5" dominant-baseline="ideographic">Time Field</tspan></text></g></g></g><g id="g-root-hi_qva4541jjgljc-fill" data-item-order="0" transform="translate(423.0000915527344, 49)"></g><g id="g-root-flow_1cuvl6g1izivpl-fill" data-item-order="0" transform="translate(81, 212.75)"></g><g id="g-root-corn_1qegph41jj88ow-fill" data-item-order="0" transform="translate(152, 210.5)"></g><g id="g-root-sk_i09xmw1hba0ox-fill" data-item-order="0" transform="translate(633, 73)"></g><g id="g-root-bu_huo3ns1izbt37-fill" data-item-order="0" transform="translate(666.0001220703125, 28)"></g><g id="g-root-sk_zp1fns1hvc269-fill" data-item-order="0" transform="translate(681, 265)"></g><g id="g-root-live_hs5i0o1jj5ekq-fill" data-item-order="0" transform="translate(423.0000915527344, 241)"></g><g id="g-root-tx_4nl0201hvludq-fill" data-item-order="1000000000" transform="translate(678.0001220703125, 40)"><g id="tx_4nl0201hvludq-fill" stroke="none" fill="#4e88e7"><g><text style="font: 20px Roboto, sans-serif; white-space: pre;" font-size="20px" font-family="Roboto, sans-serif"><tspan x="15.96" y="33.5" dominant-baseline="ideographic">_msg</tspan></text></g></g></g><g id="g-root-cn_2qh2w1kdb66b-fill" data-item-order="1000000002" transform="translate(119.5, 229)"></g><g id="g-root-tf_4hbgqg1jj5czv-stroke" data-item-order="-292320" transform="translate(-9, -9)"></g><g id="g-root-0.cu_sy_8vvxiw1jjdu6n-stroke" data-item-order="-228090" transform="translate(15, 49)"><g id="0.cu_sy_8vvxiw1jjdu6n-stroke" fill="none" stroke-linecap="round" stroke-linejoin="round" stroke-miterlimit="4" stroke="#808080" stroke-width="2"><g><path d="M 250 130C 250 196.2742 196.2742 250 130 250C 63.7258 250 10 196.2742 10 130C 10 63.7258 63.7258 10 130 10C 196.2742 10 250 63.7258 250 130Z"></path></g></g></g><g id="g-root-3.cu_sy_dbpfnc1jjdu68-stroke" data-item-order="-228086" transform="translate(242.1923828125, 187)"><g id="3.cu_sy_dbpfnc1jjdu68-stroke" fill="none" stroke-linecap="round" stroke-linejoin="round" stroke-miterlimit="4" stroke="#92bd39" stroke-width="2"><g><path d="M 574.8075 40L 154.8075 40L 21.4665 10C 19.5456 22.7701 15.6123 34.8811 10 46L 154.8075 136L 574.8075 136L 574.8075 40Z"></path></g></g></g><g id="g-root-2.cu_sy_4g2feg1jjduyx-stroke" data-item-order="-228082" transform="translate(253.6593017578125, 121)"><g id="2.cu_sy_4g2feg1jjduyx-stroke" fill="none" stroke-linecap="round" stroke-linejoin="round" stroke-miterlimit="4" stroke="#3cc583" stroke-width="2"><g><path d="M 563.341 10L 143.341 10L 10 40C 10.8832 45.8715 11.341 51.8823 11.341 58C 11.341 64.1177 10.8832 70.1285 10 76L 143.341 106L 563.341 106L 563.341 10Z"></path></g></g></g><g id="g-root-1.cu_sy_4g2feg1jjduyy-stroke" data-item-order="-228078" transform="translate(242.1923828125, 25)"><g id="1.cu_sy_4g2feg1jjduyy-stroke" fill="none" stroke-linecap="round" stroke-linejoin="round" stroke-miterlimit="4" stroke="#1eabda" stroke-width="2"><g><path d="M 574.8075 10L 154.8075 10L 10 100C 15.6123 111.1189 19.5456 123.2299 21.4665 136L 154.8075 106L 574.8075 106L 574.8075 10Z"></path></g></g></g><g id="g-root-tx_145iah41jtkemg-stroke" data-item-order="0" transform="translate(703.0001220703125, 231)"></g><g id="g-root-tx_messagef_1lqixyw1jjdtz9-stroke" data-item-order="0" transform="translate(482.9999694824219, 61)"></g><g id="g-root-cn_4ik5fs1hbmqko-stroke" data-item-order="0" transform="translate(633, 52)"><g id="cn_4ik5fs1hbmqko-stroke" fill="none" stroke-linecap="round" stroke-linejoin="round" stroke-miterlimit="4" stroke="#484848" stroke-width="2"><g><path d="M 10 31L 23.5 20.5L 37 10"></path></g></g></g><g id="g-root-tx_4hxukp1hb4emi-stroke" data-item-order="0" transform="translate(83.00009155273438, 248)"></g><g id="g-root-tx_streamid_1cuvxq01jjdurz-stroke" data-item-order="0" transform="translate(482.9999694824219, 253)"></g><g id="g-root-data_zk1mzc1ipdlvz-stroke" data-item-order="0" transform="translate(111, 92)"><g id="data_zk1mzc1ipdlvz-stroke" fill="none" stroke-linecap="round" stroke-linejoin="round" stroke-miterlimit="4" stroke="#de8431" stroke-width="2"><g><path d="M 17 11L 51 11C 51 11 55 11 55 15L 55 53C 55 53 55 57 51 57L 17 57C 17 57 13 57 13 53L 13 15C 13 15 13 11 17 11M 13 21L 55 21M 13 33L 55 33M 13 45L 55 45M 27 21L 27 57M 41 21L 41 57M 18 27L 22 27M 18 39L 22 39M 18 51L 22 51"></path></g></g></g><g id="g-root-cn_1lviavc1hv97nr-stroke" data-item-order="0" transform="translate(681, 243)"><g id="cn_1lviavc1hv97nr-stroke" fill="none" stroke-linecap="round" stroke-linejoin="round" stroke-miterlimit="4" stroke="#484848" stroke-width="2"><g><path d="M 10 32L 18 21L 26 10"></path></g></g></g><g id="g-root-tx_1cu9myw1jj2kn5-stroke" data-item-order="0" transform="translate(670.0001220703125, 85)"></g><g id="g-root-tx_1d2dpxk1kdfe2u-stroke" data-item-order="0" transform="translate(702.0001220703125, 274)"></g><g id="g-root-tx_victoria_1q6cg3c1jjdt70-stroke" data-item-order="0" transform="translate(81, 157)"></g><g id="g-root-six_v8lpx41jjjgg4-stroke" data-item-order="0" transform="translate(423.0000915527344, 145)"><g id="six_v8lpx41jjjgg4-stroke" fill="none" stroke-linecap="round" stroke-linejoin="round" stroke-miterlimit="4" stroke="#3cc583" stroke-width="2"><g><path d="M 11 34C 11 46.702549 21.297451 57 34 57C 46.702549 57 57 46.702549 57 34C 57 21.297451 46.702549 11 34 11C 21.297451 11 11 21.297451 11 34M 47 34L 34 34L 34 42M 57 34L 52 34M 55.248001 42.806L 50.627998 40.891998M 50.256001 50.271999L 46.722 46.734001M 42.785999 55.256001L 40.875999 50.633999M 33.978001 57L 33.984001 52"></path></g></g></g><g id="g-root-tx_timefiel_1cuvxq01jjdury-stroke" data-item-order="0" transform="translate(482.9999694824219, 157)"></g><g id="g-root-hi_qva4541jjgljc-stroke" data-item-order="0" transform="translate(423.0000915527344, 49)"><g id="hi_qva4541jjgljc-stroke" fill="none" stroke-linecap="round" stroke-linejoin="round" stroke-miterlimit="4" stroke="#1eabda" stroke-width="2"><g><path d="M 44.860001 11C 38.232391 11.076871 32.922226 16.512402 33 23.139999C 32.916565 25.370359 33.456802 27.57979 34.560001 29.52L 31 37L 38.48 33.440002C 42.851768 36.132286 48.44558 35.777859 52.442577 32.555317C 56.439579 29.332775 57.972416 23.94142 56.268658 19.098074C 54.564899 14.254728 49.994267 11.010408 44.860001 11ZM 49 28L 49 18M 41 28L 41 18M 45 28L 45 18M 41 24L 45 24M 43 39L 43 57M 11 57L 11 21C 11 18.790861 12.790861 17 15 17L 30 17M 21.5 43.5C 21.5 45.985283 23.514719 48 26 48C 28.485281 48 30.5 45.985283 30.5 43.5C 30.5 41.014717 28.485281 39 26 39C 23.514719 39 21.5 41.014717 21.5 43.5M 35 57C 33.933311 52.902744 30.233833 50.043076 26 50.043076C 21.766167 50.043076 18.066687 52.902744 17 57M 23 21L 29 21"></path></g></g></g><g id="g-root-flow_1cuvl6g1izivpl-stroke" data-item-order="0" transform="translate(81, 212.75)"><g id="flow_1cuvl6g1izivpl-stroke" fill="none" stroke-linecap="round" stroke-linejoin="round" stroke-miterlimit="4" stroke="#e0cb15" stroke-width="2"><g><path d="M 11.160714 18.125C 14.068722 16.735662 17.226734 15.946159 20.446428 15.803572C 25.089285 15.803572 27.410713 19.285713 32.05357 19.285713C 35.273266 19.143127 38.431278 18.353624 41.339287 16.964285L 36.696426 14.642857M 11.160714 27.410713C 14.068722 26.021376 17.226734 25.231873 20.446428 25.089285C 25.089285 25.089285 27.410713 28.571428 32.05357 28.571428C 35.273266 28.428843 38.431278 27.639339 41.339287 26.25L 36.696426 23.928572M 11.160714 36.696426C 14.068722 35.307091 17.226734 34.517586 20.446428 34.375C 25.089285 34.375 27.410713 37.857143 32.05357 37.857143C 35.273266 37.714554 38.431278 36.925053 41.339287 35.535713L 36.696426 33.214287"></path></g></g></g><g id="g-root-corn_1qegph41jj88ow-stroke" data-item-order="0" transform="translate(152, 210.5)"><g id="corn_1qegph41jj88ow-stroke" fill="none" stroke-linecap="round" stroke-linejoin="round" stroke-miterlimit="4" stroke="#e0cb15" stroke-width="2"><g><path d="M 45.67857 40.392857L 45.67857 43.035713C 45.67857 44.495323 44.495323 45.67857 43.035713 45.67857L 40.392857 45.67857M 45.67857 21.892857L 45.67857 32.464287M 32.464287 45.67857L 24.535713 45.67857M 11.321428 43.035713L 11.321428 13.964286C 11.321428 12.504676 12.504676 11.321428 13.964286 11.321428L 43.035713 11.321428"></path></g></g></g><g id="g-root-sk_i09xmw1hba0ox-stroke" data-item-order="0" transform="translate(633, 73)"><g id="sk_i09xmw1hba0ox-stroke" fill="none" stroke-linecap="round" stroke-linejoin="round" stroke-miterlimit="4" stroke="#484848" stroke-width="2"><g><path d="M 10 10L 25 20L 40 30"></path></g></g></g><g id="g-root-bu_huo3ns1izbt37-stroke" data-item-order="0" transform="translate(666.0001220703125, 28)"><g id="bu_huo3ns1izbt37-stroke" fill="none" stroke-linecap="round" stroke-linejoin="round" stroke-miterlimit="4" stroke="#484848" stroke-width="2"><g><path d="M 26 10L 28.24 15.4M 41.77 10L 42.23 16.54M 57.54 10L 58.44 16.13M 73.31 10L 71.6 16.48M 88.21 13.68L 84.25 18.43M 94 27.71L 87.74 29.74M 93.93 43.48L 88.89 41.38M 85.57 56.1L 82.89 51.05M 70.12 58L 70.77 51.38M 54.35 58L 54.54 51.69M 38.58 58L 38.44 51.25M 22.83 57.68L 24.68 51.9M 11.18 48.02L 15.81 44.74M 10 32.4L 15.27 33.03M 12.66 17.16L 16.86 20.78"></path></g></g></g><g id="g-root-sk_zp1fns1hvc269-stroke" data-item-order="0" transform="translate(681, 265)"><g id="sk_zp1fns1hvc269-stroke" fill="none" stroke-linecap="round" stroke-linejoin="round" stroke-miterlimit="4" stroke="#484848" stroke-width="2"><g><path d="M 10 10L 18 20L 26 30"></path></g></g></g><g id="g-root-live_hs5i0o1jj5ekq-stroke" data-item-order="0" transform="translate(423.0000915527344, 241)"><g id="live_hs5i0o1jj5ekq-stroke" fill="none" stroke-linecap="round" stroke-linejoin="round" stroke-miterlimit="4" stroke="#92bd39" stroke-width="2"><g><path d="M 57 34C 56.997284 45.588974 48.367836 55.363472 36.868576 56.802677C 25.369312 58.241882 14.597092 50.89563 11.738332 39.664787C 8.879572 28.433945 14.828465 16.831408 25.616352 12.597521C 36.404243 8.363635 48.656784 12.822716 54.200001 23C 56.041264 26.373747 57.00415 30.156511 57 34ZM 44.034 23C 42.16589 17.966837 38.622917 13.729682 34 11C 29.377079 13.729682 25.83411 17.966837 23.966 23M 23.964001 45C 25.833622 50.03289 29.377079 54.269787 34 57C 38.841461 54.491585 42.504322 50.182335 44.200001 45M 16.563999 19L 51.436001 19M 16.563999 49L 51.436001 49M 29 39L 29 29M 33 29L 33 32.400002C 33.001076 34.749115 33.69693 37.045429 35 39C 36.30307 37.045429 36.998924 34.749115 37 32.400002L 37 29M 21 29L 21 37C 21 38.104568 21.895432 39 23 39L 25 39M 45 39L 43 39C 41.895432 39 41 38.104568 41 37L 41 31C 41 29.89543 41.895432 29 43 29L 45 29M 41 35L 45 35"></path></g></g></g><g id="g-root-tx_4nl0201hvludq-stroke" data-item-order="1000000000" transform="translate(678.0001220703125, 40)"></g><g id="g-root-cn_2qh2w1kdb66b-stroke" data-item-order="1000000002" transform="translate(119.5, 229)"><g id="cn_2qh2w1kdb66b-stroke" fill="none" stroke-linecap="round" stroke-linejoin="round" stroke-miterlimit="4" stroke="#808080" stroke-width="2"><g><path d="M 10 10L 23.3 10L 34.5 10"></path><path d="M 28.5 16.5L 35 10L 28.5 3.5" stroke-dasharray="none"></path></g></g></g></g></g></svg>