<?xml version="1.0" encoding="utf-8" standalone="yes"?>
<!DOCTYPE svg PUBLIC "-//W3C//DTD SVG 1.1//EN" "http://www.w3.org/Graphics/SVG/1.1/DTD/svg11.dtd">
<svg width="914" height="482" viewBox="0 0 914 482" style="fill:none;stroke:none;fill-rule:evenodd;clip-rule:evenodd;stroke-linecap:round;stroke-linejoin:round;stroke-miterlimit:1.5;" version="1.1" xmlns="http://www.w3.org/2000/svg" xmlns:xlink="http://www.w3.org/1999/xlink"><style id="fontImports">@import url("https://fonts.googleapis.com/css2?family=Roboto:wght@400;700&amp;display=block");</style><rect id="" x="0" y="0" width="914" height="482" style="fill: #ffffff;"></rect><g id="items" style="isolation: isolate"><g id="blend" style="mix-blend-mode: normal"><g id="g-root-tf_1hiuhjd1kmy681-fill" data-item-order="-437760" transform="translate(-9, -9)"><g id="tf_1hiuhjd1kmy681-fill" stroke="none" fill="#ffffff"><g><path d="M 10 10L 922 10L 922 490L 10 490Z"></path></g></g></g><g id="g-root-ro_1lynwi11kn6lmt-fill" data-item-order="-25200" transform="translate(363, 155)"><g id="ro_1lynwi11kn6lmt-fill" stroke="none" fill="#f5f5f5"><g><path d="M 34 10L 154 10C 154 10 178 10 178 34L 178 136C 178 136 178 160 154 160L 34 160C 34 160 10 160 10 136L 10 34C 10 34 10 10 34 10"></path></g></g></g><g id="g-root-ro_dj80951kmy77y-fill" data-item-order="-16200" transform="translate(15, 279)"><g id="ro_dj80951kmy77y-fill" stroke="none" fill="#f4ffdc"><g><path d="M 22 10L 298 10C 298 10 310 10 310 22L 310 52C 310 52 310 64 298 64L 22 64C 22 64 10 64 10 52L 10 22C 10 22 10 10 22 10"></path></g></g></g><g id="g-root-ro_zk2ouh1kneznz-fill" data-item-order="-14256" transform="translate(579, 39)"><g id="ro_zk2ouh1kneznz-fill" stroke="none" fill="#faf0ff"><g><path d="M 22 10L 262 10C 262 10 274 10 274 22L 274 52C 274 52 274 64 262 64L 22 64C 22 64 10 64 10 52L 10 22C 10 22 10 10 22 10"></path></g></g></g><g id="g-root-ro_4hyn2h1knf0ga-fill" data-item-order="-11664" transform="translate(579, 261)"><g id="ro_4hyn2h1knf0ga-fill" stroke="none" fill="#fffbda"><g><path d="M 22 10L 214 10C 214 10 226 10 226 22L 226 52C 226 52 226 64 214 64L 22 64C 22 64 10 64 10 52L 10 22C 10 22 10 10 22 10"></path></g></g></g><g id="g-root-ro_18gc9c91kmy70g-fill" data-item-order="-11016" transform="translate(111, 57)"><g id="ro_18gc9c91kmy70g-fill" stroke="none" fill="#ffeceb"><g><path d="M 22 10L 202 10C 202 10 214 10 214 22L 214 52C 214 52 214 64 202 64L 22 64C 22 64 10 64 10 52L 10 22C 10 22 10 10 22 10"></path></g></g></g><g id="g-root-tx_applytob_74xmx1knge15-fill" data-item-order="0" transform="translate(75, 231)"><g id="tx_applytob_74xmx1knge15-fill" stroke="none" fill="#484848"><g><text style="font: 20px Roboto, sans-serif; white-space: pre;" font-size="20px" font-family="Roboto, sans-serif"><tspan x="12.32" y="33.5" dominant-baseline="ideographic">Apply to Block Result</tspan></text></g></g></g><g id="g-root-tx_bloomfil_1d1ry2x1kngdtt-fill" data-item-order="0" transform="translate(135, 345)"><g id="tx_bloomfil_1d1ry2x1kngdtt-fill" stroke="none" fill="#484848"><g><text style="font: 20px Roboto, sans-serif; white-space: pre;" font-size="20px" font-family="Roboto, sans-serif"><tspan x="17.21" y="33.5" dominant-baseline="ideographic">Bloom Filters</tspan></text></g></g></g><g id="g-root-cu_940z7t1kmy4uf-fill" data-item-order="0" transform="translate(315, 84)"></g><g id="g-root-tx_bitmapor_1hgyz491kngg7b-fill" data-item-order="0" transform="translate(627, 363)"><g id="tx_bitmapor_1hgyz491kngg7b-fill" stroke="none" fill="#484848"><g><text style="font: 20px Roboto, sans-serif; white-space: pre;" font-size="20px" font-family="Roboto, sans-serif"><tspan x="16.09" y="33.5" dominant-baseline="ideographic">Bitmap Oriented</tspan></text></g></g></g><g id="g-root-tx_syncpool_1464xu11kngemi-fill" data-item-order="0" transform="translate(159, 381)"><g id="tx_syncpool_1464xu11kngemi-fill" stroke="none" fill="#484848"><g><text style="font: 20px Roboto, sans-serif; white-space: pre;" font-size="20px" font-family="Roboto, sans-serif"><tspan x="14.87" y="33.5" dominant-baseline="ideographic">Sync Pools</tspan></text></g></g></g><g id="g-root-cu_1utoitl1kmy70k-fill" data-item-order="0" transform="translate(603, 93)"></g><g id="g-root-cu_1utoitl1kmy70n-fill" data-item-order="0" transform="translate(603, 93)"></g><g id="g-root-cu_1qehhs91kmy4n5-fill" data-item-order="0" transform="translate(603, 93)"></g><g id="g-root-cu_1qehhs91kmy4n7-fill" data-item-order="0" transform="translate(603, 93)"></g><g id="g-root-cu_8dyyx1kmy6fa-fill" data-item-order="0" transform="translate(273, 111)"></g><g id="g-root-cu_8dyyx1kmy6fc-fill" data-item-order="0" transform="translate(273, 111)"></g><g id="g-root-cu_1utoitl1kmy70i-fill" data-item-order="0" transform="translate(273, 111)"></g><g id="g-root-cu_4o7h3d1kmy5mw-fill" data-item-order="0" transform="translate(315, 255)"></g><g id="g-root-cu_1qehhs91kmy4n9-fill" data-item-order="0" transform="translate(603, 315)"></g><g id="g-root-tx_filterph_1usfhhl1kngema-fill" data-item-order="0" transform="translate(627, 105)"><g id="tx_filterph_1usfhhl1kngema-fill" stroke="none" fill="#484848"><g><text style="font: 20px Roboto, sans-serif; white-space: pre;" font-size="20px" font-family="Roboto, sans-serif"><tspan x="14.3" y="33.5" dominant-baseline="ideographic">Filter Phrase</tspan></text></g></g></g><g id="g-root-tx_filterin_1usfhhl1kngemb-fill" data-item-order="0" transform="translate(627, 141)"><g id="tx_filterin_1usfhhl1kngemb-fill" stroke="none" fill="#484848"><g><text style="font: 20px Roboto, sans-serif; white-space: pre;" font-size="20px" font-family="Roboto, sans-serif"><tspan x="12.96" y="33.5" dominant-baseline="ideographic">Filter In</tspan></text></g></g></g><g id="g-root-tx_updatene_4mbyo91knggen-fill" data-item-order="0" transform="translate(63, 159)"><g id="tx_updatene_4mbyo91knggen-fill" stroke="none" fill="#484848"><g><text style="font: 20px Roboto, sans-serif; white-space: pre;" font-size="20px" font-family="Roboto, sans-serif"><tspan x="14.53" y="33.5" dominant-baseline="ideographic">Update Needed Fields</tspan></text></g></g></g><g id="g-root-cu_1lynznt1kmy5fk-fill" data-item-order="0" transform="translate(603, 315)"></g><g id="g-root-cu_4o7h3d1kmy5mt-fill" data-item-order="0" transform="translate(531, 255)"></g><g id="g-root-cu_1lynznt1kmy5fm-fill" data-item-order="0" transform="translate(603, 315)"></g><g id="g-root-cu_940z7t1kmy4ui-fill" data-item-order="0" transform="translate(531, 66)"></g><g id="g-root-tx_filterst_1lwsh8p1kngff0-fill" data-item-order="0" transform="translate(627, 177)"><g id="tx_filterst_1lwsh8p1kngff0-fill" stroke="none" fill="#484848"><g><text style="font: 20px Roboto, sans-serif; white-space: pre;" font-size="20px" font-family="Roboto, sans-serif"><tspan x="13.2" y="33.5" dominant-baseline="ideographic">Filter Stream</tspan></text></g></g></g><g id="g-root-tx_applytob_74xmx1knge14-fill" data-item-order="0" transform="translate(63, 195)"><g id="tx_applytob_74xmx1knge14-fill" stroke="none" fill="#484848"><g><text style="font: 20px Roboto, sans-serif; white-space: pre;" font-size="20px" font-family="Roboto, sans-serif"><tspan x="15.44" y="33.5" dominant-baseline="ideographic">Apply to Block Search</tspan></text></g></g></g><g id="g-root-tx_tokeniza_1hgyz491kngg7a-fill" data-item-order="0" transform="translate(627, 327)"><g id="tx_tokeniza_1hgyz491kngg7a-fill" stroke="none" fill="#484848"><g><text style="font: 20px Roboto, sans-serif; white-space: pre;" font-size="20px" font-family="Roboto, sans-serif"><tspan x="14.95" y="33.5" dominant-baseline="ideographic">Tokenization and Hashing</tspan></text></g></g></g><g id="g-root-tx_columnfi_1d1ry2x1kngdts-fill" data-item-order="0" transform="translate(627, 399)"><g id="tx_columnfi_1d1ry2x1kngdts-fill" stroke="none" fill="#484848"><g><text style="font: 20px Roboto, sans-serif; white-space: pre;" font-size="20px" font-family="Roboto, sans-serif"><tspan x="15.63" y="33.5" dominant-baseline="ideographic">Column/Field Manipulation</tspan></text></g></g></g><g id="g-root-cu_1lynznt1kmy5fo-fill" data-item-order="0" transform="translate(273, 333)"></g><g id="g-root-cu_1d30zex1kmy68f-fill" data-item-order="0" transform="translate(273, 333)"></g><g id="g-root-tx_filterst_1lwsh8p1kngff1-fill" data-item-order="0" transform="translate(668, 209)"><g id="tx_filterst_1lwsh8p1kngff1-fill" stroke="none" fill="#484848"><g><text style="font: 20px Roboto, sans-serif; white-space: pre;" font-size="20px" font-family="Roboto, sans-serif"><tspan x="14.1" y="33.5" dominant-baseline="ideographic">...</tspan></text></g></g></g><g id="g-root-1_8z04m11jt3kle-fill" data-item-order="1000000000" transform="translate(273, 69)"></g><g id="g-root-tx_filterim_1cuwq4p1knf18t-fill" data-item-order="1000000000" transform="translate(627, 54)"><g id="tx_filterim_1cuwq4p1knf18t-fill" stroke="none" fill="#ba5de5"><g><text style="font: 20px Roboto, sans-serif; white-space: pre;" font-size="20px" font-family="Roboto, sans-serif"><tspan x="12.02" y="33.5" dominant-baseline="ideographic">Filter Implementations</tspan></text></g></g></g><g id="g-root-1_qunae11hvdeyz-fill" data-item-order="1000000000" transform="translate(423, 179)"></g><g id="g-root-tx_victoria_90cw91kn6k8z-fill" data-item-order="1000000000" transform="translate(387, 233)"><g id="tx_victoria_90cw91kn6k8z-fill" stroke="none" fill="#484848"><g><text style="font: 20px Roboto, sans-serif; white-space: pre;" font-size="20px" font-family="Roboto, sans-serif"><tspan x="12.75" y="33.5" dominant-baseline="ideographic">VictoriaLogs </tspan><tspan x="41.26" y="57.5" dominant-baseline="ideographic">Filters</tspan></text></g></g></g><g id="g-root-1_1qcla3d1ipf1fk-fill" data-item-order="1000000000" transform="translate(591, 273)"></g><g id="g-root-feat_4l1yl51j9jvgp-fill" data-item-order="1000000000" transform="translate(591, 51)"></g><g id="g-root-tx_filterop_hssocp1knf214-fill" data-item-order="1000000000" transform="translate(627, 276)"><g id="tx_filterop_hssocp1knf214-fill" stroke="none" fill="#e0cb15"><g><text style="font: 20px Roboto, sans-serif; white-space: pre;" font-size="20px" font-family="Roboto, sans-serif"><tspan x="14.71" y="33.5" dominant-baseline="ideographic">Filter Operations</tspan></text></g></g></g><g id="g-root-tx_performa_quoimh1kmy5n0-fill" data-item-order="1000000000" transform="translate(27, 294)"><g id="tx_performa_quoimh1kmy5n0-fill" stroke="none" fill="#92bd39"><g><text style="font: 20px Roboto, sans-serif; white-space: pre;" font-size="20px" font-family="Roboto, sans-serif"><tspan x="13.03" y="33.5" dominant-baseline="ideographic">Performance Optimization</tspan></text></g></g></g><g id="g-root-stop_1qcld951ifl14z-fill" data-item-order="1000000000" transform="translate(273, 291)"></g><g id="g-root-tx_filterin_1cw5rgp1kmy686-fill" data-item-order="1000000000" transform="translate(123, 72)"><g id="tx_filterin_1cw5rgp1kmy686-fill" stroke="none" fill="#e55753"><g><text style="font: 20px Roboto, sans-serif; white-space: pre;" font-size="20px" font-family="Roboto, sans-serif"><tspan x="17.49" y="33.5" dominant-baseline="ideographic">Filter Interface</tspan></text></g></g></g><g id="g-root-tf_1hiuhjd1kmy681-stroke" data-item-order="-437760" transform="translate(-9, -9)"></g><g id="g-root-ro_1lynwi11kn6lmt-stroke" data-item-order="-25200" transform="translate(363, 155)"><g id="ro_1lynwi11kn6lmt-stroke" fill="none" stroke-linecap="round" stroke-linejoin="round" stroke-miterlimit="4" stroke="#484848" stroke-width="2"><g><path d="M 34 10L 154 10C 154 10 178 10 178 34L 178 136C 178 136 178 160 154 160L 34 160C 34 160 10 160 10 136L 10 34C 10 34 10 10 34 10"></path></g></g></g><g id="g-root-ro_dj80951kmy77y-stroke" data-item-order="-16200" transform="translate(15, 279)"><g id="ro_dj80951kmy77y-stroke" fill="none" stroke-linecap="round" stroke-linejoin="round" stroke-miterlimit="4" stroke="#92bd39" stroke-width="2"><g><path d="M 22 10L 298 10C 298 10 310 10 310 22L 310 52C 310 52 310 64 298 64L 22 64C 22 64 10 64 10 52L 10 22C 10 22 10 10 22 10"></path></g></g></g><g id="g-root-ro_zk2ouh1kneznz-stroke" data-item-order="-14256" transform="translate(579, 39)"><g id="ro_zk2ouh1kneznz-stroke" fill="none" stroke-linecap="round" stroke-linejoin="round" stroke-miterlimit="4" stroke="#ba5de5" stroke-width="2"><g><path d="M 22 10L 262 10C 262 10 274 10 274 22L 274 52C 274 52 274 64 262 64L 22 64C 22 64 10 64 10 52L 10 22C 10 22 10 10 22 10"></path></g></g></g><g id="g-root-ro_4hyn2h1knf0ga-stroke" data-item-order="-11664" transform="translate(579, 261)"><g id="ro_4hyn2h1knf0ga-stroke" fill="none" stroke-linecap="round" stroke-linejoin="round" stroke-miterlimit="4" stroke="#e0cb15" stroke-width="2"><g><path d="M 22 10L 214 10C 214 10 226 10 226 22L 226 52C 226 52 226 64 214 64L 22 64C 22 64 10 64 10 52L 10 22C 10 22 10 10 22 10"></path></g></g></g><g id="g-root-ro_18gc9c91kmy70g-stroke" data-item-order="-11016" transform="translate(111, 57)"><g id="ro_18gc9c91kmy70g-stroke" fill="none" stroke-linecap="round" stroke-linejoin="round" stroke-miterlimit="4" stroke="#e55753" stroke-width="2"><g><path d="M 22 10L 202 10C 202 10 214 10 214 22L 214 52C 214 52 214 64 202 64L 22 64C 22 64 10 64 10 52L 10 22C 10 22 10 10 22 10"></path></g></g></g><g id="g-root-tx_applytob_74xmx1knge15-stroke" data-item-order="0" transform="translate(75, 231)"></g><g id="g-root-tx_bloomfil_1d1ry2x1kngdtt-stroke" data-item-order="0" transform="translate(135, 345)"></g><g id="g-root-cu_940z7t1kmy4uf-stroke" data-item-order="0" transform="translate(315, 84)"><g id="cu_940z7t1kmy4uf-stroke" fill="none" stroke-linecap="round" stroke-linejoin="round" stroke-miterlimit="4" stroke="#969696" stroke-width="2" stroke-dasharray="5.0, 7.0"><g><path d="M 58 131L 55 131L 54.9 131C 43.357244 130.999994 33.999996 121.642745 33.999997 110.099995L 34 110L 34 30.9C 33.999998 19.357248 24.64275 10 13.1 10L 13 10L 10 10"></path></g></g></g><g id="g-root-tx_bitmapor_1hgyz491kngg7b-stroke" data-item-order="0" transform="translate(627, 363)"></g><g id="g-root-tx_syncpool_1464xu11kngemi-stroke" data-item-order="0" transform="translate(159, 381)"></g><g id="g-root-cu_1utoitl1kmy70k-stroke" data-item-order="0" transform="translate(603, 93)"><g id="cu_1utoitl1kmy70k-stroke" fill="none" stroke-linecap="round" stroke-linejoin="round" stroke-miterlimit="4" stroke="#969696" stroke-width="2" stroke-dasharray="5.0, 7.0"><g><path d="M 10 10L 10 22L 10 34L 19 34L 28 34"></path></g></g></g><g id="g-root-cu_1utoitl1kmy70n-stroke" data-item-order="0" transform="translate(603, 93)"><g id="cu_1utoitl1kmy70n-stroke" fill="none" stroke-linecap="round" stroke-linejoin="round" stroke-miterlimit="4" stroke="#969696" stroke-width="2" stroke-dasharray="5.0, 7.0"><g><path d="M 10 10L 10 40L 10 70L 19 70L 28 70"></path></g></g></g><g id="g-root-cu_1qehhs91kmy4n5-stroke" data-item-order="0" transform="translate(603, 93)"><g id="cu_1qehhs91kmy4n5-stroke" fill="none" stroke-linecap="round" stroke-linejoin="round" stroke-miterlimit="4" stroke="#969696" stroke-width="2" stroke-dasharray="5.0, 7.0"><g><path d="M 10 10L 10 58L 10 106L 19 106L 28 106"></path></g></g></g><g id="g-root-cu_1qehhs91kmy4n7-stroke" data-item-order="0" transform="translate(603, 93)"><g id="cu_1qehhs91kmy4n7-stroke" fill="none" stroke-linecap="round" stroke-linejoin="round" stroke-miterlimit="4" stroke="#969696" stroke-width="2" stroke-dasharray="5.0, 7.0"><g><path d="M 10 10L 10 26.5L 10 130C 10.000005 136.627425 15.372589 142.000008 22.000006 142.000007L 22.1 142L 70 142"></path></g></g></g><g id="g-root-cu_8dyyx1kmy6fa-stroke" data-item-order="0" transform="translate(273, 111)"><g id="cu_8dyyx1kmy6fa-stroke" fill="none" stroke-linecap="round" stroke-linejoin="round" stroke-miterlimit="4" stroke="#969696" stroke-width="2" stroke-dasharray="5.0, 7.0"><g><path d="M 28 10L 28 40L 28 70L 19 70L 10 70"></path></g></g></g><g id="g-root-cu_8dyyx1kmy6fc-stroke" data-item-order="0" transform="translate(273, 111)"><g id="cu_8dyyx1kmy6fc-stroke" fill="none" stroke-linecap="round" stroke-linejoin="round" stroke-miterlimit="4" stroke="#969696" stroke-width="2" stroke-dasharray="5.0, 7.0"><g><path d="M 28 10L 28 58L 28 106L 19 106L 10 106"></path></g></g></g><g id="g-root-cu_1utoitl1kmy70i-stroke" data-item-order="0" transform="translate(273, 111)"><g id="cu_1utoitl1kmy70i-stroke" fill="none" stroke-linecap="round" stroke-linejoin="round" stroke-miterlimit="4" stroke="#969696" stroke-width="2" stroke-dasharray="5.0, 7.0"><g><path d="M 28 10L 28 26.5L 28 130C 28.000005 136.627421 22.627422 142.000005 16.000005 142.000005L 15.9 142L 10 142"></path></g></g></g><g id="g-root-cu_4o7h3d1kmy5mw-stroke" data-item-order="0" transform="translate(315, 255)"><g id="cu_4o7h3d1kmy5mw-stroke" fill="none" stroke-linecap="round" stroke-linejoin="round" stroke-miterlimit="4" stroke="#969696" stroke-width="2" stroke-dasharray="5.0, 7.0"><g><path d="M 58 10L 55 10L 54.9 10C 43.357248 10.000001 33.999999 19.357249 33.999999 30.9L 34 31L 34 40.1C 34.000001 51.642749 24.642753 60.999998 13.100002 60.999999L 13 61L 10 61"></path></g></g></g><g id="g-root-cu_1qehhs91kmy4n9-stroke" data-item-order="0" transform="translate(603, 315)"><g id="cu_1qehhs91kmy4n9-stroke" fill="none" stroke-linecap="round" stroke-linejoin="round" stroke-miterlimit="4" stroke="#969696" stroke-width="2" stroke-dasharray="5.0, 7.0"><g><path d="M 10 10L 10 22L 10 34L 19 34L 28 34"></path></g></g></g><g id="g-root-tx_filterph_1usfhhl1kngema-stroke" data-item-order="0" transform="translate(627, 105)"></g><g id="g-root-tx_filterin_1usfhhl1kngemb-stroke" data-item-order="0" transform="translate(627, 141)"></g><g id="g-root-tx_updatene_4mbyo91knggen-stroke" data-item-order="0" transform="translate(63, 159)"></g><g id="g-root-cu_1lynznt1kmy5fk-stroke" data-item-order="0" transform="translate(603, 315)"><g id="cu_1lynznt1kmy5fk-stroke" fill="none" stroke-linecap="round" stroke-linejoin="round" stroke-miterlimit="4" stroke="#969696" stroke-width="2" stroke-dasharray="5.0, 7.0"><g><path d="M 10 10L 10 40L 10 70L 19 70L 28 70"></path></g></g></g><g id="g-root-cu_4o7h3d1kmy5mt-stroke" data-item-order="0" transform="translate(531, 255)"><g id="cu_4o7h3d1kmy5mt-stroke" fill="none" stroke-linecap="round" stroke-linejoin="round" stroke-miterlimit="4" stroke="#969696" stroke-width="2" stroke-dasharray="5.0, 7.0"><g><path d="M 10 10L 13 10L 13.1 10C 17.434506 9.9973 22.093114 11.608548 26.400001 14.600001C 28.989958 16.394501 31.75147 20.718449 34 26.500001C 36.248529 32.281553 39.010041 36.605501 41.599999 38.400002C 45.906887 41.391453 50.565495 43.002701 54.900001 43.000001L 55 43L 58 43"></path></g></g></g><g id="g-root-cu_1lynznt1kmy5fm-stroke" data-item-order="0" transform="translate(603, 315)"><g id="cu_1lynznt1kmy5fm-stroke" fill="none" stroke-linecap="round" stroke-linejoin="round" stroke-miterlimit="4" stroke="#969696" stroke-width="2" stroke-dasharray="5.0, 7.0"><g><path d="M 10 10L 10 22L 10 94C 10.000004 100.627423 15.372587 106.000006 22.000005 106.000005L 22.1 106L 28 106"></path></g></g></g><g id="g-root-cu_940z7t1kmy4ui-stroke" data-item-order="0" transform="translate(531, 66)"><g id="cu_940z7t1kmy4ui-stroke" fill="none" stroke-linecap="round" stroke-linejoin="round" stroke-miterlimit="4" stroke="#969696" stroke-width="2" stroke-dasharray="5.0, 7.0"><g><path d="M 10 149L 13 149L 13.1 149C 24.642748 149.000008 33.999997 139.642759 33.999997 128.100007L 34 128L 34 30.9C 33.999999 19.357249 43.357248 10.000001 54.899999 10.000002L 55 10L 58 10"></path></g></g></g><g id="g-root-tx_filterst_1lwsh8p1kngff0-stroke" data-item-order="0" transform="translate(627, 177)"></g><g id="g-root-tx_applytob_74xmx1knge14-stroke" data-item-order="0" transform="translate(63, 195)"></g><g id="g-root-tx_tokeniza_1hgyz491kngg7a-stroke" data-item-order="0" transform="translate(627, 327)"></g><g id="g-root-tx_columnfi_1d1ry2x1kngdts-stroke" data-item-order="0" transform="translate(627, 399)"></g><g id="g-root-cu_1lynznt1kmy5fo-stroke" data-item-order="0" transform="translate(273, 333)"><g id="cu_1lynznt1kmy5fo-stroke" fill="none" stroke-linecap="round" stroke-linejoin="round" stroke-miterlimit="4" stroke="#969696" stroke-width="2" stroke-dasharray="5.0, 7.0"><g><path d="M 28 10L 28 22L 28 34L 19 34L 10 34"></path></g></g></g><g id="g-root-cu_1d30zex1kmy68f-stroke" data-item-order="0" transform="translate(273, 333)"><g id="cu_1d30zex1kmy68f-stroke" fill="none" stroke-linecap="round" stroke-linejoin="round" stroke-miterlimit="4" stroke="#969696" stroke-width="2" stroke-dasharray="5.0, 7.0"><g><path d="M 28 10L 28 17.5L 28 58C 27.999999 64.627415 22.627416 69.999998 16 69.999998L 15.9 70L 10 70"></path></g></g></g><g id="g-root-tx_filterst_1lwsh8p1kngff1-stroke" data-item-order="0" transform="translate(668, 209)"></g><g id="g-root-1_8z04m11jt3kle-stroke" data-item-order="1000000000" transform="translate(273, 69)"><g id="1_8z04m11jt3kle-stroke" fill="none" stroke-linecap="round" stroke-linejoin="round" stroke-miterlimit="4" stroke="#e55753" stroke-width="2"><g><path d="M 28.75 31.54875L 28.75 34.943748C 28.75 36.72625 27.25 37.443748 25 37.443748C 22.75 37.443748 21.25 36.72625 21.25 34.943748L 21.25 31.54875M 26.25 31.81875L 26.25 24.31875C 26.25 23.628395 26.809643 23.06875 27.5 23.06875C 28.190357 23.06875 28.75 23.628395 28.75 24.31875C 28.75 25.009106 28.190357 25.56875 27.5 25.56875L 22.5 25.56875C 21.809643 25.56875 21.25 25.009106 21.25 24.31875C 21.25 23.628395 21.809643 23.06875 22.5 23.06875C 22.836674 23.050907 23.165091 23.176863 23.40349 23.415262C 23.64189 23.65366 23.767845 23.982075 23.75 24.31875L 23.75 31.81875M 28.125 31.81875C 31.190517 30.603456 33.182236 27.615877 33.125 24.31875C 33.045616 19.864731 29.454018 16.273132 25 16.19375C 20.545982 16.273132 16.954382 19.864731 16.875 24.31875C 16.817764 27.615877 18.809484 30.603456 21.875 31.81875ZM 21.25 34.318748L 28.75 34.318748M 25 10.68125L 25 13.06875M 25 37.443748L 25 39.318748M 11.25 23.06875L 14.11375 23.06875M 14.48875 13.80625L 16.875 16.19375M 38.75 23.06875L 35.88625 23.06875M 35.51125 13.80625L 33.125 16.19375"></path></g></g></g><g id="g-root-tx_filterim_1cuwq4p1knf18t-stroke" data-item-order="1000000000" transform="translate(627, 54)"></g><g id="g-root-1_qunae11hvdeyz-stroke" data-item-order="1000000000" transform="translate(423, 179)"><g id="1_qunae11hvdeyz-stroke" fill="none" stroke-linecap="round" stroke-linejoin="round" stroke-miterlimit="4" stroke="#484848" stroke-width="2"><g><path d="M 56.285713 11.714286L 11.714286 11.714286C 11.718184 22.043819 18.809322 31.0212 28.857143 33.417141L 28.857143 56.285713L 39.142857 49.428574L 39.142857 33.417141C 49.190678 31.0212 56.281818 22.043819 56.285713 11.714286Z"></path></g></g></g><g id="g-root-tx_victoria_90cw91kn6k8z-stroke" data-item-order="1000000000" transform="translate(387, 233)"></g><g id="g-root-1_1qcla3d1ipf1fk-stroke" data-item-order="1000000000" transform="translate(591, 273)"><g id="1_1qcla3d1ipf1fk-stroke" fill="none" stroke-linecap="round" stroke-linejoin="round" stroke-miterlimit="4" stroke="#e0cb15" stroke-width="2"><g><path d="M 17.266251 24.014999C 17.517984 24.294407 17.876419 24.453924 18.252501 24.453924C 18.628582 24.453924 18.987015 24.294407 19.23875 24.014999L 19.876249 23.309999C 20.25304 22.893473 20.85103 22.758844 21.369968 22.973713C 21.888908 23.188581 22.216696 23.706532 22.188749 24.2675L 22.139999 25.217499C 22.121155 25.592606 22.261932 25.958168 22.527508 26.223742C 22.793081 26.489317 23.158644 26.630095 23.533749 26.61125L 24.483749 26.5625C 25.04495 26.533981 25.563417 26.861567 25.778625 27.380648C 25.993834 27.899727 25.859249 28.498066 25.442501 28.875L 24.73625 29.512499C 24.456844 29.764235 24.297327 30.122669 24.297327 30.498751C 24.297327 30.874832 24.456844 31.233265 24.73625 31.485001L 25.442501 32.122501C 25.859249 32.499435 25.993834 33.097771 25.778625 33.616852C 25.563417 34.135933 25.04495 34.463516 24.483749 34.435001L 23.533749 34.38625C 23.158644 34.367405 22.793081 34.508183 22.527508 34.773758C 22.261932 35.039333 22.121155 35.404896 22.139999 35.779999L 22.188751 36.73C 22.216696 37.290966 21.888908 37.808918 21.369968 38.023788C 20.85103 38.238655 20.25304 38.104027 19.876249 37.6875L 19.23875 36.982502C 18.987015 36.703094 18.628582 36.543575 18.252501 36.543575C 17.876419 36.543575 17.517984 36.703094 17.266251 36.982502L 16.62875 37.6875C 16.251961 38.104027 15.653969 38.238655 15.135031 38.023788C 14.616092 37.808918 14.288304 37.290966 14.31625 36.73L 14.365 35.779999C 14.383845 35.404896 14.243067 35.039333 13.977491 34.773758C 13.711918 34.508183 13.346355 34.367405 12.97125 34.38625L 12.02125 34.435001C 11.461476 34.461655 10.945156 34.134243 10.73057 33.616547C 10.515984 33.09885 10.649268 32.502174 11.06375 32.125L 11.76875 31.487501C 12.048156 31.235767 12.207674 30.877333 12.207674 30.501251C 12.207674 30.125168 12.048156 29.766735 11.76875 29.515001L 11.06375 28.875C 10.647223 28.498209 10.512595 27.900219 10.727464 27.381281C 10.942332 26.862343 11.460282 26.534554 12.02125 26.5625L 12.971251 26.61125C 13.346355 26.630095 13.711918 26.489317 13.977491 26.223742C 14.243067 25.958168 14.383845 25.592606 14.365 25.217499L 14.31625 24.2675C 14.288304 23.706532 14.616092 23.188581 15.135031 22.973713C 15.653969 22.758844 16.251961 22.893473 16.62875 23.309999ZM 15.20125 30.498751C 15.20125 32.18391 16.567341 33.549999 18.252501 33.549999C 19.937658 33.549999 21.303751 32.18391 21.303751 30.498751C 21.303751 28.813591 19.937658 27.4475 18.252501 27.4475C 16.567341 27.4475 15.20125 28.813591 15.20125 30.498751ZM 32.733749 25.987499C 32.482018 25.708096 32.123581 25.548576 31.747501 25.548576C 31.37142 25.548576 31.012985 25.708096 30.761251 25.987499L 30.123751 26.693748C 29.746815 27.110498 29.148479 27.245083 28.629396 27.029875C 28.110317 26.814667 27.78273 26.2962 27.811249 25.734999L 27.860001 24.785C 27.878845 24.409893 27.738066 24.044333 27.472492 23.778759C 27.206917 23.513184 26.841356 23.372404 26.466249 23.391251L 25.516251 23.440001C 24.95505 23.468517 24.436583 23.140932 24.221375 22.621853C 24.006166 22.102772 24.140751 21.504435 24.557499 21.127499L 25.26375 20.49C 25.543156 20.238266 25.702675 19.879833 25.702675 19.50375C 25.702675 19.127668 25.543156 18.769234 25.26375 18.5175L 24.557499 17.879999C 24.140751 17.503065 24.006166 16.904728 24.221375 16.385647C 24.436583 15.866567 24.95505 15.538981 25.516251 15.5675L 26.466251 15.61625C 26.841356 15.635096 27.206917 15.494316 27.472492 15.228742C 27.738066 14.963167 27.878845 14.597606 27.860001 14.2225L 27.811249 13.2725C 27.783304 12.711533 28.111092 12.193582 28.63003 11.978713C 29.148968 11.763844 29.74696 11.898473 30.123749 12.315L 30.76125 13.02C 31.012985 13.299406 31.37142 13.458924 31.747501 13.458924C 32.123581 13.458924 32.482018 13.299406 32.733749 13.02L 33.37125 12.315C 33.748039 11.898473 34.346031 11.763844 34.864967 11.978713C 35.383907 12.193582 35.711697 12.711533 35.68375 13.2725L 35.634998 14.2225C 35.616154 14.597606 35.756935 14.963167 36.022507 15.228742C 36.288082 15.494316 36.653641 15.635096 37.028748 15.61625L 37.978748 15.5675C 38.539719 15.539555 39.057667 15.867342 39.272537 16.38628C 39.487404 16.905218 39.352776 17.50321 38.936249 17.879999L 38.231247 18.5175C 37.951847 18.769234 37.792328 19.127668 37.792328 19.50375C 37.792328 19.879833 37.951847 20.238266 38.231251 20.49L 38.936249 21.127501C 39.352776 21.50429 39.487404 22.102282 39.272537 22.62122C 39.057667 23.140158 38.539719 23.467945 37.978748 23.440001L 37.028748 23.391251C 36.653641 23.372404 36.288082 23.513184 36.022507 23.778759C 35.756935 24.044333 35.616154 24.409893 35.634998 24.785L 35.68375 25.735001C 35.712269 26.2962 35.384682 26.814667 34.865601 27.029875C 34.346519 27.245083 33.748184 27.110498 33.37125 26.693748ZM 28.696249 19.50375C 28.696251 21.18891 30.062342 22.555 31.747501 22.555C 33.432659 22.555 34.798752 21.18891 34.798752 19.50375C 34.798752 17.818592 33.432659 16.452499 31.747501 16.452499C 30.062342 16.452499 28.696251 17.818592 28.696251 19.50375Z"></path></g></g></g><g id="g-root-feat_4l1yl51j9jvgp-stroke" data-item-order="1000000000" transform="translate(591, 51)"><g id="feat_4l1yl51j9jvgp-stroke" fill="none" stroke-linecap="round" stroke-linejoin="round" stroke-miterlimit="4" stroke="#ba5de5" stroke-width="2"><g><path d="M 29.6875 24.525C 33.888977 28.767895 37.184784 33.820045 39.375 39.375M 24.75 20.1625C 24.945421 20.162384 25.105761 20.317194 25.112499 20.512501M 24.400002 20.512501C 24.406464 20.321943 24.559443 20.168964 24.75 20.162498M 24.75 20.875C 24.554693 20.868261 24.399883 20.70792 24.4 20.512501M 25.112499 20.512501C 25.112499 20.712702 24.950203 20.875 24.75 20.875M 24.762501 16.975C 26.711325 16.981886 28.287512 18.563663 28.2875 20.512501M 21.25 20.512501C 21.25 18.558792 22.833794 16.975 24.7875 16.975M 24.762501 24.049999C 22.818563 24.036263 21.24995 22.456486 21.25 20.512501M 28.2875 20.512501C 28.287512 22.461336 26.711325 24.043114 24.762499 24.049999M 10.625 10.625C 12.55 14.8625 17.9125 26.875 24.762501 26.875C 26.448792 26.875002 28.065836 26.204271 29.257051 25.01071C 30.448267 23.81715 31.115818 22.19879 31.112499 20.512501C 31.112499 11.175 10.7625 10.6375 10.625 10.625ZM 33.75 21.987499C 34.74028 24.054056 34.475246 26.503109 33.065788 28.309971C 31.656332 30.116829 29.345442 30.969997 27.1 30.512501M 38.5 26.950001C 39.145466 29.147427 38.492016 31.520882 36.812778 33.078278C 35.133545 34.635674 32.717682 35.108841 30.575001 34.299999"></path></g></g></g><g id="g-root-tx_filterop_hssocp1knf214-stroke" data-item-order="1000000000" transform="translate(627, 276)"></g><g id="g-root-tx_performa_quoimh1kmy5n0-stroke" data-item-order="1000000000" transform="translate(27, 294)"></g><g id="g-root-stop_1qcld951ifl14z-stroke" data-item-order="1000000000" transform="translate(273, 291)"><g id="stop_1qcld951ifl14z-stroke" fill="none" stroke-linecap="round" stroke-linejoin="round" stroke-miterlimit="4" stroke="#92bd39" stroke-width="2"><g><path d="M 13.125 27.501251C 13.125 34.059631 18.441618 39.376251 25 39.376251C 31.558382 39.376251 36.875 34.059631 36.875 27.501251C 36.875 20.942869 31.558382 15.62625 25 15.62625C 18.441618 15.62625 13.125 20.942869 13.125 27.501251ZM 21.25 10.62625L 28.75 10.62625M 33.396248 19.105L 35.625 16.876249M 23.125 15.7725L 23.125 10.62625L 26.875 10.62625L 26.875 15.77375M 35 16.251249L 36.25 17.501249M 25 27.501251L 19.375 21.876251"></path></g></g></g><g id="g-root-tx_filterin_1cw5rgp1kmy686-stroke" data-item-order="1000000000" transform="translate(123, 72)"></g></g></g></svg>