<?xml version="1.0" encoding="utf-8" standalone="yes"?>
<!DOCTYPE svg PUBLIC "-//W3C//DTD SVG 1.1//EN" "http://www.w3.org/Graphics/SVG/1.1/DTD/svg11.dtd">
<svg width="538" height="453" viewBox="50 0 538 453" style="fill:none;stroke:none;fill-rule:evenodd;clip-rule:evenodd;stroke-linecap:round;stroke-linejoin:round;stroke-miterlimit:1.5;" version="1.1" xmlns="http://www.w3.org/2000/svg" xmlns:xlink="http://www.w3.org/1999/xlink"><style id="fontImports">@import url("https://fonts.googleapis.com/css2?family=Shantell+Sans:wght@300..800&amp;display=block");</style><rect id="" x="0" y="0" width="604" height="452.578" style="fill: #ffffff;"></rect><g id="items" style="isolation: isolate"><g id="blend" style="mix-blend-mode: normal"><g id="g-root-tf_2qqdn1etqdxo-fill" data-item-order="-269147" transform="translate(-8, -8)"><g id="tf_2qqdn1etqdxo-fill" stroke="none" fill="#ffffff"><g><path d="M 10 10L 610 10L 610 458.58L 10 458.58Z"></path></g></g></g><g id="g-root-1.gauge-filled-1_sy_1lpwdmz1etkphg-fill" data-item-order="-57886" transform="translate(292.00006103515625, 136)"><g id="1.gauge-filled-1_sy_1lpwdmz1etkphg-fill" stroke="none" fill="#dce9ff"><g><path d="M 13.6 3.1L 9 3.7L 10.6 23.7L 16.3 22.9ZM 10.6 23.7L 47.3 23L 37.6 3.2L 9 3.7ZM 37.6 3.2L 4.1 44.7L 17 60.6L 47.3 23ZM 17 60.6L 68.9 34.1L 56.5 18L 4.1 44.7ZM 56.5 18L 9.1 71.7L 21.8 87.5L 68.9 34.1ZM 21.8 87.5L 90.8 49L 79.3 32.5L 9.1 71.7ZM 79.3 32.5L 20.5 82.9L 31.8 99.5L 90.8 49ZM 31.8 99.5L 104.4 61.1L 92.4 44.8L 20.5 82.9ZM 92.4 44.8L 37.9 98.4L 49.9 114.7L 104.4 61.1ZM 49.9 114.7L 119 77.6L 107.2 61.2L 37.9 98.4ZM 107.2 61.2L 48.8 115.7L 60.3 132.3L 119 77.6ZM 60.3 132.3L 125.6 99.9L 112.7 84L 48.8 115.7ZM 112.7 84L 86.9 116.6L 98.6 134L 125.6 99.9ZM 98.6 134L 130.8 124.7L 117.9 107.6L 86.9 116.6ZM 117.9 107.6L 107.3 124.6L 124.2 135.2L 130.8 124.7Z" fill-rule="nonzero"></path></g></g></g><g id="g-root-2.gauge-filled-2_sy_1cu9de31etkqa5-fill" data-item-order="-57882" transform="translate(172.00045776367188, 136)"><g id="2.gauge-filled-2_sy_1cu9de31etkqa5-fill" stroke="none" fill="#ebebeb"><g><path d="M 128.099603 257.2L 131.399603 256.5L 132.599603 235.9L 124.299603 237.5ZM 132.599603 235.9L 64.199603 214.2L 61.199603 234.3L 131.399603 256.5ZM 61.199603 234.3L 205.099603 232.5L 206.399603 212.5L 64.199603 214.2ZM 206.399603 212.5L 40.699603 189.1L 39.299603 209.2L 205.099603 232.5ZM 39.299603 209.2L 228.699603 207.4L 229.499603 187.4L 40.699603 189.1ZM 229.499603 187.4L 20.699603 168.3L 19.599603 188.3L 228.699603 207.4ZM 19.599603 188.3L 232.699603 192.4L 236.299603 172.5L 20.699603 168.3ZM 236.299603 172.5L 163.899603 147.2L 160.299603 167.1L 232.699603 192.4ZM 160.299603 167.1L 244.199603 168.2L 244.399603 148.2L 163.899603 147.2ZM 15.199603 165.8L 98.099603 166.2L 99.799603 146.2L 15.299603 145.8ZM 99.799603 146.2L 9.999603 131.5L 9.399603 151.7L 98.099603 166.2ZM 9.399603 151.7L 91.599603 142.6L 92.999603 122.4L 9.999603 131.5ZM 92.999603 122.4L 13.599603 102.3L 11.099603 122.3L 91.599603 142.6ZM 11.099603 122.3L 89.899603 122.5L 92.799603 102.5L 13.599603 102.3ZM 92.799603 102.5L 24.199603 82.4L 21.299603 102.4L 89.899603 122.5ZM 21.299603 102.4L 112.699603 102.2L 115.799603 82.2L 24.199603 82.4ZM 115.799603 82.2L 35.699603 56.7L 32.999603 76.8L 112.699603 102.2ZM 32.999603 76.8L 127.499603 73.3L 128.999603 53.3L 35.699603 56.7ZM 128.999603 53.3L 48.699603 37.7L 47.199603 57.8L 127.499603 73.3ZM 47.199603 57.8L 123.699603 54.9L 126.499603 34.8L 48.699603 37.7ZM 126.499603 34.8L 77.199603 18.7L 73.799603 38.6L 123.699603 54.9ZM 73.799603 38.6L 131.799603 39.9L 132.199603 19.9L 77.199603 18.7Z" fill-rule="nonzero"></path></g></g></g><g id="g-root-tx_distribu_1cu9de31etkqa6-fill" data-item-order="0" transform="translate(178.00006103515625, 52)"><g id="tx_distribu_1cu9de31etkqa6-fill" stroke="none" fill="#484848"><g><text style="font: bold 25px &quot;Shantell Sans&quot;, cursive; white-space: pre;" font-weight="bold" font-size="25px" font-family="'Shantell Sans', cursive"><tspan x="17.1" y="41.5" dominant-baseline="ideographic">Lines of code of </tspan><tspan x="21.95" y="71.5" dominant-baseline="ideographic">VictoriaMetrics</tspan></text></g></g></g><g id="g-root-tx_73861log_zisv0r1etkrv3-fill" data-item-order="0" transform="translate(381.71209716796875, 119.4219970703125)"><g id="tx_73861log_zisv0r1etkrv3-fill" stroke="none" fill="#484848"><g><text style="font: 20px &quot;Shantell Sans&quot;, cursive; white-space: pre;" font-size="20px" font-family="'Shantell Sans', cursive"><tspan x="12" y="35.5" dominant-baseline="ideographic">73861 Log </tspan><tspan x="12" y="59.5" dominant-baseline="ideographic">Storage</tspan></text></g></g></g><g id="g-root-book_qvwhzf1etm5ty-fill" data-item-order="0" transform="translate(330.779052734375, 181.927001953125)"></g><g id="g-root-book_8ydqmj1etqd4z-fill" data-item-order="0" transform="translate(217.22103881835938, 294.072998046875)"></g><g id="g-root-tx_219248ot_i0vytn1etm3gv-fill" data-item-order="0" transform="translate(118.28805541992188, 344.577880859375)"><g id="tx_219248ot_i0vytn1etm3gv-fill" stroke="none" fill="#484848"><g><text style="font: 20px &quot;Shantell Sans&quot;, cursive; white-space: pre;" font-size="20px" font-family="'Shantell Sans', cursive"><tspan x="18.19" y="35.5" dominant-baseline="ideographic">219248 </tspan><tspan x="27.43" y="59.5" dominant-baseline="ideographic">Others</tspan></text></g></g></g><g id="g-root-tf_2qqdn1etqdxo-stroke" data-item-order="-269147" transform="translate(-8, -8)"></g><g id="g-root-1.gauge-filled-1_sy_1lpwdmz1etkphg-stroke" data-item-order="-57886" transform="translate(292.00006103515625, 136)"><g id="1.gauge-filled-1_sy_1lpwdmz1etkphg-stroke" fill="none" stroke-linecap="round" stroke-linejoin="round" stroke-miterlimit="4" stroke="#484848" stroke-width="2"><g><path d="M 10 10C 42.1 9.8 73.7 22 95.4 45.7C 117.1 69.3 131.3 99.4 130 131.5C 103.2 130.4 76.4 130.6 49.6 130.5C 48.5 120 46.6 108.6 38.2 102.2C 29.8 95.8 20.5 91.6 10 90.4C 9.4 63.6 10.3 36.8 10 10"></path><path d="M 10 10C 42.086383 9.999891 72.836379 22.849746 95.382472 45.679753C 117.928565 68.509761 130.392629 99.418143 129.991013 131.502006L 49.597 130.496C 49.729615 119.908266 45.616519 109.708418 38.176306 102.174444C 30.736092 94.640469 20.58855 90.399967 9.999993 90.399995L 10 10Z"></path></g></g></g><g id="g-root-2.gauge-filled-2_sy_1cu9de31etkqa5-stroke" data-item-order="-57882" transform="translate(172.00045776367188, 136)"><g id="2.gauge-filled-2_sy_1cu9de31etkqa5-stroke" fill="none" stroke-linecap="round" stroke-linejoin="round" stroke-miterlimit="4" stroke="#484848" stroke-width="2"><g><path d="M 249.999603 131.5C 251.299603 144.6 247.499603 157.4 243.399603 169.2C 239.199603 181.7 232.599603 192.9 224.999603 203.4C 218.399603 212.4 210.999603 221.6 200.999603 226.7C 190.799603 231.9 181.799603 239.6 170.599603 242.9C 157.399603 246.9 143.599603 250.2 128.999603 250C 114.499603 249.8 101.099603 246.1 87.899603 242.4C 75.099603 238.8 63.399603 231.7 53.899603 222.8C 45.199603 214.6 35.099603 207.2 29.999603 196.4C 24.999603 185.6 16.699603 175.9 14.899603 163.9C 13.099603 152.7 8.499603 141.4 9.999603 129.5C 11.699603 115.7 14.399603 102.8 16.899603 89.9C 19.399603 76.8 28.599603 66.3 35.899603 55.5C 42.099603 46.3 50.699603 38.7 59.999603 32.6C 70.699603 25.5 81.999603 19.3 94.499603 15.3C 105.699603 11.8 117.699603 10.4 129.999603 10C 131.299603 36.8 129.799603 63.6 129.999603 90.4C 108.199603 90.9 91.499603 108.1 90.399603 129.8C 89.299603 151.6 107.899603 170.4 129.699603 169.6C 151.499603 168.8 167.699603 152.2 169.599603 130.5C 196.299603 132.8 223.199603 132.1 249.999603 131.5"></path><path d="M 249.990603 131.502C 249.163528 197.575503 195.075173 250.547149 128.9988 249.995823C 62.922427 249.444498 9.725506 195.577689 10.00106 129.499591C 10.276613 63.421492 63.920937 10.000224 129.99961 10L 129.999603 90.4C 108.193675 90.400053 90.491053 108.028996 90.400048 129.834727C 90.309044 151.640459 107.863905 169.416546 129.669066 169.598612C 151.474227 169.780678 169.32347 152.300204 169.596594 130.495993L 249.990603 131.502Z"></path></g></g></g><g id="g-root-tx_distribu_1cu9de31etkqa6-stroke" data-item-order="0" transform="translate(178.00006103515625, 52)"></g><g id="g-root-tx_73861log_zisv0r1etkrv3-stroke" data-item-order="0" transform="translate(381.71209716796875, 119.4219970703125)"></g><g id="g-root-book_qvwhzf1etm5ty-stroke" data-item-order="0" transform="translate(330.779052734375, 181.927001953125)"><g id="book_qvwhzf1etm5ty-stroke" fill="none" stroke-linecap="round" stroke-linejoin="round" stroke-miterlimit="4" stroke="#484848" stroke-width="2"><g><path d="M 22 43.75C 22.150002 44.5 21.25 45.550003 20.5 45.25C 17.950001 44.199997 14.95 46 12.25 45.25C 11.5 44.949997 10.6 44.5 10.75 43.75C 13.45 33.549999 8.35 22.450001 10.75 12.25C 10.9 11.5 11.35 10.75 12.25 10.75C 14.95 10.9 17.950001 9.85 20.5 10.75C 21.25 11.05 21.85 11.5 22 12.25C 24.099998 22.599998 21.4 33.25 22 43.75M 18.25 31C 18.25 31.450001 17.950001 31.900002 17.5 31.75C 16.6 31.450001 15.55 31.599998 14.5 31.75C 14.05 31.75 13.9 31.450001 13.75 31C 12.1 25.75 14.5 19.9 13.75 14.5C 13.75 14.05 14.05 13.75 14.5 13.75C 15.55 13.9 16.450001 13.75 17.5 13.75C 17.950001 13.75 18.25 14.05 18.25 14.5C 19 19.9 18.700001 25.599998 18.25 31M 13.75 18.25C 15.25 18.4 16.9 18.700001 18.25 18.25M 34 43.75C 33.700001 44.5 33.400002 45.25 32.5 45.25C 29.5 45.099998 26.5 44.949997 23.5 45.25C 22.599998 45.25 21.85 44.5 22 43.75C 23.950001 33.400002 20.65 22.599998 22 12.25C 22.150002 11.5 22.75 11.05 23.5 10.75C 26.349998 9.7 29.5 11.2 32.5 10.75C 33.25 10.6 34.300003 11.5 34 12.25C 31 22.299999 35.199997 33.25 34 43.75M 30.25 31C 30.25 31.450001 29.950001 31.900002 29.5 31.75C 28.599998 31.450001 27.400002 31.900002 26.5 31.75C 26.049999 31.599998 25.900002 31.450001 25.75 31C 24.400002 25.75 26.799999 19.9 25.75 14.5C 25.599998 14.05 26.049999 13.75 26.5 13.75C 27.549999 13.75 28.599998 13.45 29.5 13.75C 29.950001 13.9 30.400002 14.05 30.25 14.5C 28.599998 19.75 32.200001 25.900002 30.25 31M 25.75 18.25C 27.099998 17.799999 28.75 17.950001 30.25 18.25M 45.25 43.75C 45.550003 44.5 44.5 45.099998 43.75 45.25C 41.050003 45.699997 38.199997 45.25 35.5 45.25C 34.599998 45.25 34.300003 44.5 34 43.75C 30.549999 33.849998 33.849998 22.75 34 12.25C 34 11.35 34.75 10.9 35.5 10.75C 38.199997 10.3 41.050003 11.2 43.75 10.75C 44.5 10.6 45.400002 11.5 45.25 12.25C 43.150002 22.599998 45.099998 33.25 45.25 43.75M 42.25 31C 42.25 31.450001 41.949997 31.75 41.5 31.75C 40.449997 31.900002 39.400002 32.049999 38.5 31.75C 38.050003 31.599998 37.900002 31.450001 37.75 31C 36.400002 25.75 38.5 19.9 37.75 14.5C 37.75 14.05 38.050003 13.75 38.5 13.75C 39.550003 13.75 40.449997 13.6 41.5 13.75C 41.949997 13.75 42.099998 14.05 42.25 14.5C 44.050003 19.75 42.699997 25.450001 42.25 31M 37.75 18.25C 39.25 17.950001 40.75 18.25 42.25 18.25M 13.75 38.5C 13.75 39.699997 14.8 41.050003 16 40.75C 17.200001 40.449997 18.4 39.699997 18.25 38.5C 18.1 37.300003 17.200001 36.25 16 36.25C 14.8 36.25 13.6 37.300003 13.75 38.5M 25.75 38.5C 25.599998 39.699997 26.799999 40.599998 28 40.75C 29.200001 40.900002 30.549999 39.699997 30.25 38.5C 29.950001 37.300003 29.200001 36.25 28 36.25C 26.799999 36.25 25.75 37.300003 25.75 38.5M 37.75 38.5C 37.599998 39.699997 38.800003 40.449997 40 40.75C 41.199997 41.050003 42.699997 39.699997 42.25 38.5C 41.800003 37.300003 41.199997 35.800003 40 36.25C 38.800003 36.699997 37.75 37.300003 37.75 38.5M 22 43.75C 22 44.578426 21.328426 45.25 20.5 45.25L 12.25 45.25C 11.421573 45.25 10.75 44.578426 10.75 43.75L 10.75 12.25C 10.75 11.421573 11.421573 10.75 12.25 10.75L 20.5 10.75C 21.328426 10.75 22 11.421573 22 12.25ZM 18.25 31C 18.25 31.414213 17.914213 31.75 17.5 31.75L 14.5 31.75C 14.085787 31.75 13.75 31.414213 13.75 31L 13.75 14.5C 13.75 14.085787 14.085787 13.75 14.5 13.75L 17.5 13.75C 17.914213 13.75 18.25 14.085787 18.25 14.5ZM 13.75 18.25L 18.25 18.25M 34 43.75C 34 44.578426 33.328426 45.25 32.5 45.25L 23.5 45.25C 22.671572 45.25 22 44.578426 22 43.75L 22 12.25C 22 11.421573 22.671572 10.75 23.5 10.75L 32.5 10.75C 33.328426 10.75 34 11.421573 34 12.25ZM 30.25 31C 30.25 31.414213 29.914213 31.75 29.5 31.75L 26.5 31.75C 26.085787 31.75 25.75 31.414213 25.75 31L 25.75 14.5C 25.75 14.085787 26.085787 13.75 26.5 13.75L 29.5 13.75C 29.914213 13.75 30.25 14.085787 30.25 14.5ZM 25.75 18.25L 30.25 18.25M 45.25 43.75C 45.25 44.578426 44.578426 45.25 43.75 45.25L 35.5 45.25C 34.671574 45.25 34 44.578426 34 43.75L 34 12.25C 34 11.421573 34.671574 10.75 35.5 10.75L 43.75 10.75C 44.578426 10.75 45.25 11.421573 45.25 12.25ZM 42.25 31C 42.25 31.414213 41.914215 31.75 41.5 31.75L 38.5 31.75C 38.085785 31.75 37.75 31.414213 37.75 31L 37.75 14.5C 37.75 14.085787 38.085785 13.75 38.5 13.75L 41.5 13.75C 41.914215 13.75 42.25 14.085787 42.25 14.5ZM 37.75 18.25L 42.25 18.25M 13.75 38.5C 13.75 39.742641 14.75736 40.75 16 40.75C 17.242641 40.75 18.25 39.742641 18.25 38.5C 18.25 37.257362 17.242641 36.25 16 36.25C 14.75736 36.25 13.75 37.257362 13.75 38.5ZM 25.75 38.5C 25.75 39.742641 26.75736 40.75 28 40.75C 29.242641 40.75 30.25 39.742641 30.25 38.5C 30.25 37.257362 29.242641 36.25 28 36.25C 26.75736 36.25 25.75 37.257362 25.75 38.5ZM 37.75 38.5C 37.75 39.742641 38.757362 40.75 40 40.75C 41.242641 40.75 42.25 39.742641 42.25 38.5C 42.25 37.257362 41.242641 36.25 40 36.25C 38.757362 36.25 37.75 37.257362 37.75 38.5Z"></path></g></g></g><g id="g-root-book_8ydqmj1etqd4z-stroke" data-item-order="0" transform="translate(217.22103881835938, 294.072998046875)"><g id="book_8ydqmj1etqd4z-stroke" fill="none" stroke-linecap="round" stroke-linejoin="round" stroke-miterlimit="4" stroke="#484848" stroke-width="2"><g><path d="M 37.749989 42.249989C 37.89999 42.999989 36.999989 43.899986 36.249989 43.749985C 29.949993 42.249989 23.199995 44.949986 16.749998 43.749985C 15.999998 43.599987 15.249998 42.999989 15.249998 42.249989C 14.499998 32.799992 14.349998 23.199995 15.249998 13.749998C 15.399998 12.999999 15.999998 12.099999 16.749998 12.249999C 23.199995 12.999999 29.799992 11.799999 36.249989 12.249999C 37.14999 12.249999 37.749989 12.999999 37.749989 13.749998C 37.89999 23.199995 35.949989 32.949989 37.749989 42.249989M 31.74999 23.499994C 31.899992 23.949995 31.449991 24.099995 30.999992 24.249994C 28.599993 24.699995 26.049994 24.099995 23.499994 24.249994C 23.049995 24.249994 22.749994 23.949995 22.749994 23.499994C 22.899996 21.999996 22.449995 20.499996 22.749994 18.999996C 22.899996 18.549995 23.049995 18.099997 23.499994 18.249996C 25.899994 18.849997 28.599993 18.699997 30.999992 18.249996C 31.449991 18.099997 31.899992 18.549995 31.74999 18.999996C 31.299992 20.349997 32.199993 21.999996 31.74999 23.499994M 13.749998 16.749998C 15.249998 16.599997 16.749998 16.449997 18.249996 16.749998M 13.749998 24.249994C 15.249998 24.249994 16.749998 23.799994 18.249996 24.249994M 13.749998 31.74999C 15.099998 31.149992 16.749998 31.449991 18.249996 31.74999M 13.749998 39.249989C 15.249998 38.949986 16.749998 38.799988 18.249996 39.249989M 42.249989 21.249996C 40.749989 20.949995 39.249989 21.249996 37.749989 21.249996C 38.499989 19.449997 37.14999 17.199997 37.749989 15.249998C 38.799988 15.399998 39.699986 15.249998 40.749989 15.249998C 41.649986 15.249998 42.549988 15.999998 42.249989 16.749998C 41.799988 18.249996 42.399986 19.749996 42.249989 21.249996M 37.749989 21.249996C 39.249989 21.099997 40.749989 21.099997 42.249989 21.249996C 42.399986 23.199995 42.849987 25.299994 42.249989 27.249992C 40.749989 27.249992 39.249989 27.099993 37.749989 27.249992C 37.749989 25.299994 37.89999 23.199995 37.749989 21.249996M 37.749989 27.249992C 39.249989 26.799994 40.749989 27.099993 42.249989 27.249992C 42.549988 29.199993 42.549988 31.299992 42.249989 33.249992C 40.749989 33.249992 39.249989 33.39999 37.749989 33.249992C 37.449989 31.299992 37.14999 29.199993 37.749989 27.249992M 42.249989 37.749989C 42.249989 38.499989 41.499989 39.39999 40.749989 39.249989C 39.699986 39.099987 38.64999 39.099987 37.749989 39.249989C 37.299992 37.299992 37.14999 35.199989 37.749989 33.249992C 39.249989 33.39999 40.749989 33.249992 42.249989 33.249992C 42.399986 34.749989 42.699986 36.249989 42.249989 37.749989M 37.749989 42.249989C 37.749989 43.078415 37.078415 43.749985 36.249989 43.749985L 16.749998 43.749985C 15.921571 43.749985 15.249998 43.078415 15.249998 42.249989L 15.249998 13.749998C 15.249998 12.921572 15.921571 12.249999 16.749998 12.249999L 36.249989 12.249999C 37.078415 12.249999 37.749989 12.921572 37.749989 13.749998ZM 31.74999 23.499994C 31.74999 23.914207 31.414206 24.249994 30.999992 24.249994L 23.499994 24.249994C 23.085781 24.249994 22.749994 23.914207 22.749994 23.499994L 22.749994 18.999996C 22.749994 18.585783 23.085781 18.249996 23.499994 18.249996L 30.999992 18.249996C 31.414206 18.249996 31.74999 18.585783 31.74999 18.999996ZM 13.749998 16.749998L 18.249996 16.749998M 13.749998 24.249994L 18.249996 24.249994M 13.749998 31.74999L 18.249996 31.74999M 13.749998 39.249989L 18.249996 39.249989M 42.249989 21.249996L 37.749989 21.249996L 37.749989 15.249998L 40.749989 15.249998C 41.578415 15.249998 42.249989 15.921571 42.249989 16.749998ZM 37.749989 21.249996L 42.249989 21.249996L 42.249989 27.249992L 37.749989 27.249992ZM 37.749989 27.249992L 42.249989 27.249992L 42.249989 33.249992L 37.749989 33.249992ZM 42.249989 37.749989C 42.249989 38.578415 41.578415 39.249989 40.749989 39.249989L 37.749989 39.249989L 37.749989 33.249992L 42.249989 33.249992Z"></path></g></g></g><g id="g-root-tx_219248ot_i0vytn1etm3gv-stroke" data-item-order="0" transform="translate(118.28805541992188, 344.577880859375)"></g></g></g></svg>